<?xml version="1.0" encoding="utf-8"?>
<!-- Generator: Adobe Illustrator 27.5.0, SVG Export Plug-In . SVG Version: 6.00 Build 0)  -->
<svg version="1.1" id="Layer_1" xmlns="http://www.w3.org/2000/svg" xmlns:xlink="http://www.w3.org/1999/xlink" x="0px" y="0px"
	 viewBox="0 0 795 450" style="enable-background:new 0 0 795 450;" xml:space="preserve">
<g>
	<path style="fill:#995235;" d="M97.231,130.344c19.652-0.213,34.33-3.785,34.33-3.785s-2.53,0.422-5.061-42.617
		c-2.245-38.181-24.264-40.507-29.206-40.507c-0.652,0-1.304,0-1.955,0c-4.942,0-26.961,2.326-29.206,40.507
		c-2.53,43.039-5.061,42.617-5.061,42.617s14.678,3.572,34.33,3.785v0.01c0.307,0,0.609-0.003,0.914-0.005
		c0.305,0.002,0.607,0.005,0.914,0.005L97.231,130.344z"/>
	<path style="opacity:0.5;fill:#8A2F17;" d="M96.934,130.346c13.267-0.169,23.176-2.991,23.176-2.991s-1.708-2.333-3.416-36.339
		c-1.697-33.789-20.141-28.707-20.377-28.641c-0.236-0.066-18.68-5.148-20.377,28.641c-1.708,34.007-3.417,36.339-3.417,36.339
		s9.909,2.822,23.176,2.991l0,0.008c0.207,0,0.411-0.003,0.617-0.004c0.206,0.001,0.41,0.004,0.617,0.004L96.934,130.346z"/>
	<path style="fill:#F2AB88;" d="M85.575,132.307c1.821,1.339,3.69,2.715,5.195,4.419c0.559,0.642,1.131,1.272,1.703,1.901
		c2.768-0.283,5.589-0.832,8.195-1.795c6.352-2.347,12.495-7.027,17.001-12.08c1.702-1.908,2.005-4.875,3.136-7.153
		c-3.736-1.021-6.624-1.58-9.431-2.724c-7.451-3.036-7.269-17.221-7.269-17.221h-16.06c0,0,0,14.627-7.451,17.663
		c-3.563,1.451-8.469,2.466-13.21,3.901C71.839,124.317,79.598,127.91,85.575,132.307z"/>
	<path style="fill:#E95E68;" d="M115.495,116.07c-0.685,1.005-13.416,19.577-18.201,19.626c-0.093-0.001-0.494-0.001-0.588,0
		c-4.785-0.049-17.516-18.621-18.201-19.626c-6.544,2.156-15.924,3.568-21.573,7.996c0.923,1.848,1.699,3.825,2.378,5.874
		c2.457,7.414,5.668,14.442,7.376,22.12c2.727,12.256,5.176,33.514,5.837,45.965l0.243,0.091c7.622,2.848,15.941,4.103,24.233,3.869
		c8.292,0.234,16.611-1.02,24.233-3.869l0.243-0.091c0.661-12.451,3.11-33.709,5.838-45.965c1.708-7.678,4.919-14.706,7.376-22.12
		c0.679-2.049,1.455-4.026,2.378-5.874C131.419,119.637,122.04,118.226,115.495,116.07z"/>
	<g>
		<g>
			<g>
				<path style="fill:#C1414D;" d="M90.785,147.821c0,0.901,0.73,1.632,1.632,1.632c0.901,0,1.632-0.73,1.632-1.632
					c0-0.901-0.73-1.632-1.632-1.632C91.516,146.189,90.785,146.92,90.785,147.821z"/>
			</g>
			<g>
				<path style="fill:#C1414D;" d="M90.785,158.605c0,0.901,0.73,1.632,1.632,1.632c0.901,0,1.632-0.73,1.632-1.632
					c0-0.901-0.73-1.632-1.632-1.632C91.516,156.974,90.785,157.704,90.785,158.605z"/>
			</g>
			<g>
				<path style="fill:#C1414D;" d="M90.785,169.39c0,0.901,0.73,1.632,1.632,1.632c0.901,0,1.632-0.73,1.632-1.632
					c0-0.901-0.73-1.632-1.632-1.632C91.516,167.758,90.785,168.489,90.785,169.39z"/>
			</g>
			<g>
				<path style="fill:#C1414D;" d="M90.785,180.174c0,0.901,0.73,1.632,1.632,1.632c0.901,0,1.632-0.73,1.632-1.632
					c0-0.901-0.73-1.632-1.632-1.632C91.516,178.543,90.785,179.273,90.785,180.174z"/>
			</g>
		</g>
	</g>
	<path style="fill:#CA3348;" d="M97,138.627c0,0-1.594,34.572,0.169,57.059C97.169,195.686,97.683,146.905,97,138.627z"/>
	<path style="opacity:0.65;fill:#CFB6B5;" d="M128.436,146.101c-4.596,3.596-7.291,12.705-9.686,17.897
		c-3.36,7.286-7.02,11.17-14.758,14.589c-4.551,2.011-8.34,1.207-11.856-0.579c-6.414,0.224-10.272-2.174-14.51-8.2
		c-4.358-6.196-7.468-13.509-9.885-20.467c-2.1-6.045-4.786-12.014-7.855-17.734c2.365,6.806,5.222,13.354,6.802,20.452
		c2.727,12.256,5.176,33.514,5.837,45.965l0.243,0.091c7.622,2.848,15.941,4.103,24.233,3.869c8.292,0.234,16.611-1.02,24.233-3.869
		l0.243-0.091c0.661-12.451,3.11-33.709,5.838-45.965c0.489-2.195,1.104-4.336,1.786-6.45
		C128.877,145.773,128.653,145.931,128.436,146.101z"/>
	<path style="opacity:0.55;fill:#DCB890;" d="M88.045,97.753c-0.001,0.116-0.006,0.338-0.018,0.654
		c-0.001,0.023-0.002,0.044-0.003,0.067c-0.013,0.32-0.035,0.722-0.07,1.193c-0.002,0.029-0.004,0.057-0.006,0.086
		c-0.037,0.483-0.088,1.031-0.157,1.629c-0.003,0.028-0.007,0.056-0.01,0.085c-0.072,0.605-0.163,1.256-0.28,1.938
		c-0.006,0.034-0.012,0.067-0.017,0.101c-0.118,0.685-0.262,1.396-0.436,2.118c-0.008,0.034-0.017,0.069-0.025,0.103
		c-0.176,0.722-0.383,1.452-0.626,2.174c-0.012,0.037-0.025,0.074-0.038,0.111c-0.245,0.717-0.526,1.422-0.847,2.099
		c-0.019,0.04-0.038,0.079-0.057,0.118c-0.162,0.334-0.331,0.662-0.513,0.979c0.508,0.213,6.064,2.428,10.656,2.428
		c6.705,0,10.103-1.959,11.427-2.775c-2.913-5.391-2.916-13.207-2.916-13.207h-8.03h-8.03c0,0,0,0.035-0.001,0.084
		C88.045,97.745,88.045,97.746,88.045,97.753z"/>
	<g>
		<path style="fill:#F2AB88;" d="M72.55,80.413c2.458-3.331,8.031,2.094,8.031,2.094s3.46,4.043-0.569,8.93
			c-2.015,2.444-4.341,0.596-5.898-2.308C72.557,86.224,70.798,82.788,72.55,80.413z"/>
		<path style="fill:#DB7A5B;" d="M76.086,89.464c0.54,0.548,1.231,0.991,2.048,0.843c0.343-0.062,0.662-0.571,0.568-0.863
			c-0.233-0.723-2.537-2.009-1.963-4.026c0.58-2.037-2.007-3.988-2.813-2.868C73.298,83.424,74.058,87.407,76.086,89.464z"/>
	</g>
	<g>
		<path style="fill:#F2AB88;" d="M120.076,80.413c-2.458-3.331-8.031,2.094-8.031,2.094s-3.46,4.043,0.569,8.93
			c2.015,2.444,4.341,0.596,5.898-2.308C120.07,86.224,121.829,82.788,120.076,80.413z"/>
		<path style="fill:#DB7A5B;" d="M116.541,89.464c-0.54,0.548-1.231,0.991-2.048,0.843c-0.343-0.062-0.663-0.571-0.568-0.863
			c0.233-0.723,2.537-2.009,1.963-4.026c-0.58-2.037,2.007-3.988,2.813-2.868C119.329,83.424,118.569,87.407,116.541,89.464z"/>
	</g>
	<path style="fill:#F2AB88;" d="M116.473,63.709c-0.539-3.019-2.603-5.569-5.217-7.657c-4.373-3.493-9.628-7.101-14.884-7.101
		c-5.256,0-10.511,3.607-14.884,7.101c-2.614,2.088-4.678,4.638-5.217,7.657c0,0-1.28,22.041,4.638,31.139
		c4.585,7.047,10.358,12.558,15.462,12.558s10.877-5.51,15.462-12.558C117.754,85.75,116.473,63.709,116.473,63.709z"/>
	<g>
		<g>
			<path style="fill:#FDFAEE;" d="M82.451,78.997c0,2.237,1.915,4.05,4.278,4.05c2.363,0,4.278-1.813,4.278-4.05
				s-1.915-4.05-4.278-4.05C84.367,74.947,82.451,76.76,82.451,78.997z"/>
			<path style="fill:#321413;" d="M85.163,81.918c0.791,0.154,1.471,0.248,2.257,0.247c1.274-0.002,2.441-0.566,3.197-1.483
				c-0.676,1.395-2.16,2.366-3.887,2.366c-1.774,0-3.296-1.023-3.944-2.48C83.463,81.171,84.269,81.744,85.163,81.918z"/>
			<g>
				<path style="fill:#633837;" d="M84.221,79.209c0,1.367,1.123,2.475,2.508,2.475c1.385,0,2.508-1.108,2.508-2.475
					s-1.123-2.475-2.508-2.475C85.344,76.734,84.221,77.842,84.221,79.209z"/>
				<path style="fill:#321413;" d="M85.206,79.209c0,0.83,0.682,1.503,1.523,1.503c0.841,0,1.523-0.673,1.523-1.503
					s-0.682-1.503-1.523-1.503C85.888,77.706,85.206,78.379,85.206,79.209z"/>
			</g>
			<path style="fill:#974C40;" d="M89.541,77.772c-0.978-0.276-2.029-0.497-3.05-0.415c-1.573,0.126-2.781,0.566-4.031,1.457
				c0.102-2.151,0.924-4.518,4.24-4.738c3.2-0.212,4.067,2.466,4.285,4.509C90.581,78.215,90.096,77.928,89.541,77.772z"/>
			<path style="fill:#321413;" d="M89.541,77.772c-0.978-0.276-2.029-0.497-3.05-0.415c-1.573,0.126-2.781,0.566-4.031,1.457
				c-1.178-0.472-2.224-1.403-2.118-2.375c0,0,1.573,0.532,2.865-0.081c0.786-0.373,1.803-0.87,3.294-0.968
				c3.2-0.212,4.266,1.153,4.484,3.196C90.581,78.215,90.096,77.928,89.541,77.772z"/>
		</g>
		<path style="fill:#FDFAEE;" d="M88.339,78.617c0,0.272-0.22,0.492-0.492,0.492c-0.272,0-0.492-0.22-0.492-0.492
			c0-0.272,0.22-0.492,0.492-0.492C88.119,78.124,88.339,78.345,88.339,78.617z"/>
	</g>
	<g>
		<g>
			<path style="fill:#FDFAEE;" d="M109.246,78.997c0,2.237-1.915,4.05-4.278,4.05c-2.363,0-4.278-1.813-4.278-4.05
				s1.915-4.05,4.278-4.05C107.331,74.947,109.246,76.76,109.246,78.997z"/>
			<path style="fill:#321413;" d="M106.535,81.918c-0.791,0.154-1.471,0.248-2.257,0.247c-1.274-0.002-2.441-0.566-3.197-1.483
				c0.676,1.395,2.16,2.366,3.887,2.366c1.774,0,3.296-1.023,3.944-2.48C108.234,81.171,107.428,81.744,106.535,81.918z"/>
			<g>
				<path style="fill:#633837;" d="M107.476,79.209c0,1.367-1.123,2.475-2.508,2.475c-1.385,0-2.508-1.108-2.508-2.475
					s1.123-2.475,2.508-2.475C106.353,76.734,107.476,77.842,107.476,79.209z"/>
				<ellipse style="fill:#321413;" cx="104.968" cy="79.209" rx="1.523" ry="1.503"/>
			</g>
			<path style="fill:#974C40;" d="M102.156,77.772c0.978-0.276,2.03-0.497,3.05-0.415c1.573,0.126,2.781,0.566,4.031,1.457
				c-0.102-2.151-0.924-4.518-4.24-4.738c-3.2-0.212-4.067,2.466-4.285,4.509C101.117,78.215,101.602,77.928,102.156,77.772z"/>
			<path style="fill:#321413;" d="M102.156,77.772c0.978-0.276,2.03-0.497,3.05-0.415c1.573,0.126,2.781,0.566,4.031,1.457
				c1.178-0.472,2.224-1.403,2.118-2.375c0,0-1.573,0.532-2.866-0.081c-0.786-0.373-1.803-0.87-3.294-0.968
				c-3.2-0.212-4.266,1.153-4.484,3.196C101.117,78.215,101.602,77.928,102.156,77.772z"/>
		</g>
		<path style="fill:#FDFAEE;" d="M105.723,78.617c0,0.272,0.22,0.492,0.492,0.492c0.272,0,0.492-0.22,0.492-0.492
			c0-0.272-0.22-0.492-0.492-0.492C105.943,78.124,105.723,78.345,105.723,78.617z"/>
	</g>
	
		<radialGradient id="SVGID_1_" cx="136.561" cy="86.9253" r="3.7993" gradientTransform="matrix(1.1695 0 0 1 -52.3916 0)" gradientUnits="userSpaceOnUse">
		<stop  offset="0" style="stop-color:#F29788"/>
		<stop  offset="0.6119" style="stop-color:#F2A388"/>
		<stop  offset="0.9198" style="stop-color:#F2AB88"/>
	</radialGradient>
	<path style="fill:url(#SVGID_1_);" d="M112.077,86.925c0,1.937-2.131,3.507-4.761,3.507c-2.629,0-4.761-1.57-4.761-3.507
		c0-1.937,2.131-3.507,4.761-3.507C109.946,83.418,112.077,84.989,112.077,86.925z"/>
	
		<radialGradient id="SVGID_00000048461059907129275170000006096602528204357775_" cx="394.402" cy="86.9253" r="3.7993" gradientTransform="matrix(-1.1695 0 0 1 546.5875 0)" gradientUnits="userSpaceOnUse">
		<stop  offset="0" style="stop-color:#F29788"/>
		<stop  offset="0.6119" style="stop-color:#F2A388"/>
		<stop  offset="0.9198" style="stop-color:#F2AB88"/>
	</radialGradient>
	
		<ellipse style="fill:url(#SVGID_00000048461059907129275170000006096602528204357775_);" cx="85.334" cy="86.925" rx="4.761" ry="3.507"/>
	<g>
		<path style="fill:#CE7959;" d="M95.388,89.673c-0.124,0-0.24-0.006-0.344-0.019c-0.779-0.09-2.179-0.368-2.808-1.222
			c-0.286-0.388-0.383-0.84-0.287-1.343c0.085-0.445,0.52-1.036,1.072-1.784c0.57-0.772,1.215-1.647,1.494-2.404
			c0.793-2.158,0.911-4.77,0.913-4.795c0.01-0.232,0.222-0.421,0.439-0.404c0.233,0.01,0.413,0.206,0.404,0.439
			c-0.005,0.112-0.125,2.771-0.964,5.051c-0.32,0.87-1.003,1.797-1.607,2.615c-0.409,0.555-0.873,1.184-0.922,1.44
			c-0.051,0.271-0.007,0.489,0.138,0.686c0.316,0.429,1.148,0.759,2.225,0.884c0.601,0.07,1.409-0.127,1.63-0.397
			c0.042-0.051,0.048-0.083,0.029-0.144c-0.071-0.222,0.05-0.459,0.272-0.531c0.221-0.07,0.46,0.051,0.531,0.272
			c0.107,0.333,0.044,0.666-0.179,0.938C96.996,89.476,96.076,89.673,95.388,89.673z"/>
	</g>
	<path style="fill:#6B2F0C;" d="M91.067,70.743c0.748,0.033,1.446-0.065,1.809-0.721c0.323-0.584,0.755-1.51,0.591-1.777
		c-0.489-0.797-8.497-0.66-8.8-0.539c-0.303,0.121-4.183,2.546-4.062,3.092c0.121,0.546,4.372-0.909,4.793-0.849
		C85.715,69.995,89.074,70.656,91.067,70.743z"/>
	<path style="fill:#6B2F0C;" d="M101.679,70.743c-0.748,0.033-1.446-0.065-1.809-0.721c-0.323-0.584-0.755-1.51-0.591-1.777
		c0.489-0.797,8.497-0.66,8.8-0.539c0.303,0.121,4.183,2.546,4.062,3.092c-0.121,0.546-4.372-0.909-4.793-0.849
		C107.031,69.995,103.672,70.656,101.679,70.743z"/>
	<path style="fill:#E95E68;" d="M99.958,93.266c-1.228-0.464-3.219-0.873-4.109,0.986c-0.891-1.859-2.881-1.45-4.109-0.986
		c-1.229,0.464-4.018,0.686-4.018,0.686c3.438,3.139,8.127,2.619,8.127,2.619s4.689,0.519,8.127-2.619
		C103.976,93.951,101.186,93.73,99.958,93.266z"/>
	<path style="fill:#E95E68;" d="M95.849,95.933c0,0-4.68-0.318-6.796-0.971c0,0,3.183,3.986,6.796,3.986
		c3.613,0,6.795-3.986,6.795-3.986C100.529,95.614,95.849,95.933,95.849,95.933z"/>
	<path style="fill:#995235;" d="M96.465,48.806c0,0,0,0.011-0.001,0.025c0-0.014-0.001-0.025-0.001-0.025
		c-31.661,0-24.446,21.751-21.968,28.9c0.756,2.181,2.022,4.49,3.022,6.329c1.141,2.099,0.773-0.346,0.773-0.346
		c-1.546-11.813,1.757-20.283,1.757-20.283c3.377-8.54,16.416-9.7,16.416-9.7s8.143,7.591,16.416,9.7c0,0,3.303,8.469,1.757,20.283
		c0,0-0.368,2.445,0.773,0.346c1-1.839,2.266-4.147,3.022-6.329C120.91,70.557,128.126,48.806,96.465,48.806z"/>
	<path style="opacity:0.5;fill:#995235;" d="M120.166,60.305c-0.769-2.465-2.2-4.785-4.624-6.685
		C117.389,55.605,118.947,57.877,120.166,60.305z"/>
	<path style="fill:#995235;" d="M115.949,67.93c0,0-0.233-15.78-12.685-17.395c-1.918-0.249-11.992-0.05-14.043,0.149
		C72.27,52.329,76.156,71.196,76.156,71.196c6.551-2.837,12.304-9.129,13.939-15.09C91.579,60.445,102.697,67.846,115.949,67.93z"/>
	<path style="opacity:0.5;fill:#995235;" d="M108.23,59.38c-1.508-0.922-2.901-2.008-4.142-3.249c1.687,2.53,2.53,5.904,5.904,6.748
		c-5.904,0-10.965-4.217-13.495-9.278c0,2.53,0.843,4.217,2.53,5.904c-3.407-1.363-6.261-3.83-9.012-6.505
		c-0.753,3.072-2.364,5.758-4.821,8.281c-1.02,1.048-2.088,1.968-3.215,2.762c-1.999,1.41-3.332,3.608-3.668,6.031
		c-0.002,0.015-0.004,0.03-0.006,0.044c5.627-3.163,10.335-8.716,11.788-14.013c1.404,4.106,11.437,10.95,23.739,11.745
		c-0.053-0.369-0.118-0.731-0.191-1.089C113,63.642,110.947,61.04,108.23,59.38z"/>
	<path style="fill:#F2AB88;" d="M66.833,302.167c0,0-0.857,6.202-3.25,11c-1.898,3.807-4.379,8.22-5.062,12.184
		c-1.545,8.96-0.927,50.052-1.854,53.142c-0.927,3.09-3.708,19.156-2.781,23.172c0.927,4.017,13.138,7.008,13.447,3.918
		c0.309-3.09-2.743-26.166-2.633-28.635c0.674-15.073,13.903-41.71,13.594-49.125c-0.309-7.415,9.578-23.227,9.578-23.227
		S74.248,297.786,66.833,302.167z"/>
	<path style="opacity:0.32;fill:#DAAB88;" d="M71.215,317.629c3.509,0.927,6.693,0.474,9.89-0.206
		c2.827-6.517,6.767-12.827,6.767-12.827s-13.624-6.809-21.04-2.429c0,0-0.857,6.202-3.25,11c-0.096,0.193-0.204,0.401-0.303,0.597
		C65.801,315.396,68.373,316.878,71.215,317.629z"/>
	<path style="fill:#F2AB88;" d="M103.337,304.596c0,0,4.017,14.267,3.399,17.048c-0.618,2.781-2.96,10.505,0.065,26.571
		c3.025,16.066,3.952,24.099,3.025,29.352c-0.927,5.252-3.708,28.895,2.472,30.668c4.161,1.194,6.719-0.755,6.827-10.109
		c0.046-3.968,0.251-9.845-1.081-16.402c-0.462-2.275-0.52-4.606-0.268-6.913c0.467-4.287,1.365-11.446,2.82-18.935
		c2.335-12.022,6.074-24.921,4.677-34.54c-2.781-19.156-2.472-22.245-2.472-22.245S113.522,294.252,103.337,304.596z"/>
	<path style="opacity:0.32;fill:#DAAB88;" d="M124.326,314.554c-1.755-13.128-1.524-15.465-1.524-15.465s-9.28-4.837-19.465,5.507
		c0,0,1.976,7.023,2.942,12.174C112.61,317.595,119.388,317.793,124.326,314.554z"/>
	<path style="fill:#333333;" d="M55.506,383.977c0,0,0.43,17.21,4.869,17.612c8.125,0.734,4.653-19.375,4.653-19.375
		s3.845,21.738,3.921,26.476c0.034,2.144-4.14,7.265-6.704,7.265c-2.565,0-7.34-4.866-8.544-9.037S54.344,389.46,55.506,383.977z"/>
	<path style="fill:#333333;" d="M118.399,383.977c0,0-0.413,17.508-4.869,17.612c-6.947,0.162-4.352-19.375-4.352-19.375
		s-4.129,21.738-4.222,26.476c-0.032,1.644,4.14,7.265,6.704,7.265s7.34-4.866,8.544-9.037
		C121.409,402.747,119.561,389.46,118.399,383.977z"/>
	<path style="fill:#333333;" d="M73.059,195.686c0,0-17.104,28.98-12.185,57.314c5.42,31.223-4.035,44.743-8.206,51.596
		c0,0,27.189,19.211,77.241,5.307c0,0-4.325-15.757-2.163-31.823c2.163-16.066,9.008-49.234-6.131-82.393
		C121.615,195.686,90.052,204.437,73.059,195.686z"/>
	<path style="fill:#E95E68;" d="M137.068,124.066c0,0-3.374,2.627-8.318,14.059c-2.3,5.319-4.791,13.577-4.333,19.353
		c0.353,4.461,1.44,16.204,0.833,17.772c-0.986,2.544-43.4,4.087-43.4,4.087l2.183,18.424c0,0,49.241,1.218,56.967-5.011
		C145.469,189.147,143.5,130.354,137.068,124.066z"/>
	<path style="opacity:0.65;fill:#CFB6B5;" d="M102.614,191.245c4.4-1.402,8.658-3.304,13.01-4.83
		c0.034-0.721,0.171-1.34,0.514-1.772c0.431-0.545,5.914-1.244,6.751-2.329c1.016-1.317,1.141-1.933,1.18-2.483
		c0.107-1.523,0.083-1.568-0.132-2.684c-0.057,0.471-0.132,0.861-0.233,1.123c-0.857,2.211-29.621,3.699-41.48,4.219l1.583,13.357
		C90.083,194.397,96.422,193.217,102.614,191.245z"/>
	<path style="fill:#F2AB88;" d="M118.341,182.053c2.235-0.703,4.846-1.428,5.789-3.379c0.575-1.189-0.073-5.689-0.073-5.689
		c-0.598-0.284-3.353-1.098-3.888-1.189c-2.908-0.494-10.355,4.825-10.355,4.825c-0.261,1.22,0.147,3.566,0.898,5.934
		c0.162,0.482,3.578,0.147,4.047,0.13C115.87,182.645,117.12,182.436,118.341,182.053z"/>
	<path style="opacity:0.35;fill:#D49481;" d="M124.058,172.984c-0.214-0.102-0.705-0.271-1.27-0.451
		c0.363,3.688,0.391,7.209-4.409,8.187c-1.748,0.356-6.292,0.491-7.998,0.691c0.102,0.378,0.211,0.76,0.333,1.144
		c0.162,0.482,3.578,0.147,4.047,0.13c1.111-0.04,2.36-0.249,3.581-0.633c2.235-0.703,4.846-1.428,5.789-3.379
		C124.705,177.484,124.058,172.984,124.058,172.984z"/>
	<path style="fill:#E95E68;" d="M56.932,124.066c0,0-2.932,3.332-6.765,24.249c-2.409,13.143-5.477,36.21-2.333,42.852
		c6.543,13.823,64.417-6.729,64.417-6.729l-1.871-9.688c0,0-47.161,4.949-47.161,2.296c0-1.22,1.581-6.102,2.163-8.712
		c0.972-4.364,2.871-9.625,1.952-14.001C65.375,145.013,59.485,124.066,56.932,124.066z"/>
	<path style="opacity:0.65;fill:#CFB6B5;" d="M59.004,160.869c2.52-2.861,5.187,0.609,5.775,1.192
		c-0.064,2.236-0.331,4.469-0.821,6.667c-0.554,2.486-0.818,6.4-0.881,8.189C62.338,176.355,52.92,167.776,59.004,160.869z"/>
	<g>
		<path style="fill:#F2AB88;" d="M60.094,167.576c-1.248-0.258-1.84,0.57-1.312,1.816c0.296,0.698,3.156,3.985,6.23,8.344
			c2.872,0.583,6.362,0.268,9.585-0.042c-1.097-5.194-8.68-14.724-10.707-15.785c-1.957-1.024-2.447,0.495-2.447,0.495
			c-2.734-0.781-1.984,1.593-1.984,1.593C57.395,164.886,60.094,167.576,60.094,167.576z"/>
		<path style="opacity:0.65;fill:#D69C7C;" d="M60.032,167.565c0,0,4.572,5.043,5.113,6.085c0.245,0.472,0.424,0.256-0.123-0.584
			C64.377,172.074,62.783,170.298,60.032,167.565z"/>
		<path style="opacity:0.65;fill:#D69C7C;" d="M59.485,163.998c0,0,5.313,4.706,7.055,7.733c0.284,0.493,0.529,0.342-0.177-0.755
			C65.332,169.374,62.849,166.602,59.485,163.998z"/>
		<path style="opacity:0.65;fill:#D69C7C;" d="M61.423,162.373c0,0,5.175,5.163,6.916,8.19c0.284,0.493,0.529,0.342-0.177-0.755
			C67.131,168.207,65.741,166.429,61.423,162.373z"/>
		<path style="opacity:0.35;fill:#D49481;" d="M74.004,175.831c-0.864,0.325-1.804,0.326-2.757,0.495
			c-4.635,0.821-8.981-2.679-9.39-2.845c0.949,1.229,2.037,2.67,3.155,4.255c2.872,0.583,6.362,0.268,9.585-0.042
			C74.477,177.122,74.266,176.491,74.004,175.831z"/>
	</g>
</g>
<g>
	<path style="fill:#995235;" d="M690.453,130.253c19.632-0.213,34.295-3.781,34.295-3.781s-2.528,0.421-5.055-42.573
		c-2.242-38.142-24.239-40.466-29.176-40.466c-0.651,0-1.302,0-1.953,0c-4.937,0-26.933,2.323-29.176,40.466
		c-2.528,42.995-5.056,42.573-5.056,42.573s14.663,3.568,34.295,3.781v0.01c0.307,0,0.609-0.004,0.913-0.005
		c0.305,0.002,0.607,0.005,0.913,0.005V130.253z"/>
	<path style="opacity:0.5;fill:#8A2F17;" d="M690.156,130.256c13.254-0.169,23.153-2.988,23.153-2.988s-1.707-2.33-3.413-36.302
		c-1.695-33.755-20.12-28.678-20.356-28.611c-0.236-0.067-18.661-5.143-20.356,28.611c-1.706,33.972-3.413,36.302-3.413,36.302
		s9.899,2.819,23.152,2.988l0,0.008c0.207,0,0.411-0.003,0.617-0.004c0.206,0.001,0.409,0.004,0.617,0.004L690.156,130.256z"/>
	<path style="fill:#F2AB88;" d="M687.161,136.57c4.489,2.095,8.474-0.2,12.298-2.731c3.974-2.63,7.376-4.868,10.387-8.626
		c1.85-2.309,3.758-4.538,5.53-6.883c-3.807-1.043-7.529-1.928-10.387-3.092c-7.459-3.039-7.459-17.681-7.459-17.681h-16.077
		c0,0,0,14.642-7.459,17.681c-1.819,0.741-3.998,1.368-6.318,1.994C673.068,124.886,678.48,132.519,687.161,136.57z"/>
	<path style="opacity:0.55;fill:#DCB890;" d="M681.452,97.656c-0.001,0.116-0.006,0.339-0.018,0.654
		c-0.001,0.023-0.002,0.044-0.003,0.067c-0.013,0.32-0.035,0.723-0.07,1.194c-0.002,0.029-0.004,0.057-0.007,0.086
		c-0.037,0.483-0.088,1.032-0.158,1.63c-0.003,0.028-0.007,0.056-0.01,0.085c-0.072,0.606-0.164,1.257-0.28,1.94
		c-0.006,0.034-0.012,0.067-0.017,0.101c-0.119,0.685-0.262,1.397-0.436,2.12c-0.008,0.035-0.017,0.069-0.025,0.104
		c-0.177,0.723-0.384,1.454-0.627,2.176c-0.013,0.037-0.026,0.074-0.038,0.111c-0.245,0.717-0.526,1.423-0.848,2.101
		c-0.019,0.04-0.038,0.079-0.057,0.118c-0.162,0.334-0.331,0.663-0.514,0.98c0.509,0.213,6.07,2.431,10.667,2.431
		c6.713,0,10.113-1.961,11.439-2.778c-2.916-5.397-2.919-13.221-2.919-13.221h-8.039h-8.038c0,0,0,0.034-0.001,0.084
		C681.452,97.648,681.452,97.649,681.452,97.656z"/>
	<g>
		<path style="fill:#F2AB88;" d="M665.797,80.374c2.456-3.328,8.023,2.091,8.023,2.091s3.457,4.039-0.569,8.921
			c-2.013,2.441-4.337,0.596-5.892-2.306C665.804,86.179,664.046,82.747,665.797,80.374z"/>
		<path style="fill:#DB7A5B;" d="M669.329,89.416c0.54,0.547,1.23,0.991,2.046,0.842c0.343-0.062,0.662-0.57,0.568-0.862
			c-0.233-0.722-2.535-2.007-1.961-4.022c0.579-2.035-2.005-3.984-2.81-2.865C666.544,83.382,667.303,87.361,669.329,89.416z"/>
	</g>
	<g>
		<path style="fill:#F2AB88;" d="M713.275,80.374c-2.456-3.328-8.023,2.091-8.023,2.091s-3.457,4.039,0.569,8.921
			c2.013,2.441,4.337,0.596,5.892-2.306C713.268,86.179,715.026,82.747,713.275,80.374z"/>
		<path style="fill:#DB7A5B;" d="M709.743,89.416c-0.54,0.547-1.23,0.991-2.046,0.842c-0.343-0.062-0.662-0.57-0.568-0.862
			c0.233-0.722,2.535-2.007,1.961-4.022c-0.579-2.035,2.005-3.984,2.81-2.865C712.528,83.382,711.769,87.361,709.743,89.416z"/>
	</g>
	<path style="fill:#F2AB88;" d="M709.676,63.687c-0.539-3.016-2.601-5.564-5.211-7.649c-4.368-3.49-9.618-7.093-14.868-7.093
		c-5.25,0-10.5,3.604-14.869,7.093c-2.611,2.086-4.673,4.633-5.211,7.649c0,0-1.279,22.019,4.633,31.107
		c4.58,7.04,10.347,12.545,15.446,12.545c5.099,0,10.866-5.505,15.446-12.545C710.955,85.705,709.676,63.687,709.676,63.687z"/>
	
		<radialGradient id="SVGID_00000082365154580970340500000017704531244777112708_" cx="643.7961" cy="86.8795" r="3.7954" gradientTransform="matrix(1.1695 0 0 1 -52.3916 0)" gradientUnits="userSpaceOnUse">
		<stop  offset="0" style="stop-color:#F29788"/>
		<stop  offset="0.6119" style="stop-color:#F2A388"/>
		<stop  offset="0.9198" style="stop-color:#F2AB88"/>
	</radialGradient>
	
		<ellipse style="fill:url(#SVGID_00000082365154580970340500000017704531244777112708_);" cx="700.528" cy="86.88" rx="4.756" ry="3.503"/>
	
		<radialGradient id="SVGID_00000106135196548150370630000001884982896625296825_" cx="-112.8521" cy="86.8795" r="3.7954" gradientTransform="matrix(-1.1695 0 0 1 546.5875 0)" gradientUnits="userSpaceOnUse">
		<stop  offset="0" style="stop-color:#F29788"/>
		<stop  offset="0.6119" style="stop-color:#F2A388"/>
		<stop  offset="0.9198" style="stop-color:#F2AB88"/>
	</radialGradient>
	
		<ellipse style="fill:url(#SVGID_00000106135196548150370630000001884982896625296825_);" cx="678.568" cy="86.88" rx="4.756" ry="3.503"/>
	<g>
		<path style="fill:#CE7959;" d="M688.612,89.625c-0.123,0-0.239-0.006-0.344-0.019c-0.778-0.09-2.177-0.367-2.805-1.22
			c-0.286-0.388-0.382-0.839-0.287-1.342c0.084-0.445,0.52-1.035,1.071-1.782c0.569-0.771,1.214-1.646,1.492-2.402
			c0.792-2.156,0.911-4.765,0.912-4.791c0.01-0.232,0.221-0.421,0.439-0.403c0.232,0.01,0.413,0.206,0.403,0.438
			c-0.005,0.112-0.125,2.768-0.963,5.046c-0.319,0.869-1.002,1.795-1.605,2.612c-0.409,0.554-0.873,1.182-0.921,1.439
			c-0.051,0.27-0.008,0.488,0.137,0.685c0.316,0.429,1.147,0.759,2.223,0.883c0.6,0.07,1.408-0.127,1.629-0.397
			c0.042-0.051,0.048-0.083,0.028-0.144c-0.071-0.221,0.05-0.459,0.272-0.53c0.221-0.07,0.459,0.051,0.53,0.272
			c0.107,0.333,0.044,0.665-0.179,0.937C690.218,89.427,689.299,89.625,688.612,89.625z"/>
	</g>
	<path style="fill:#6B2F0C;" d="M683.845,73.518c0.743-0.09,1.415-0.3,1.666-1.005c0.223-0.629,0.498-1.612,0.294-1.848
		c-0.612-0.706-9.04-0.452-9.319-0.283c-0.279,0.169-3.709,3.19-3.5,3.708c0.208,0.518,4.161-1.608,4.586-1.617
		C677.892,72.467,681.866,73.756,683.845,73.518z"/>
	<path style="fill:#6B2F0C;" d="M695.94,72.84c-0.741-0.104-1.409-0.328-1.646-1.037c-0.211-0.633-0.467-1.621-0.257-1.854
		c0.625-0.694,8.781,0.056,9.057,0.23s3.646,3.262,3.427,3.776c-0.218,0.514-4.129-1.689-4.553-1.706
		C701.647,72.237,697.914,73.117,695.94,72.84z"/>
	<path style="fill:#995235;" d="M689.687,48.799c0,0,0,0.011-0.001,0.025c0-0.014-0.001-0.025-0.001-0.025
		c-31.629,0-24.421,21.729-21.946,28.87c0.755,2.18,2.02,4.486,3.019,6.323c1.14,2.097,0.772-0.346,0.772-0.346
		c-1.545-11.801,1.755-20.262,1.755-20.262c3.373-8.531,16.399-9.69,16.399-9.69s8.134,7.583,16.4,9.69c0,0,3.3,8.461,1.755,20.262
		c0,0-0.368,2.443,0.772,0.346c0.999-1.837,2.264-4.143,3.019-6.323C714.108,70.528,721.316,48.799,689.687,48.799z"/>
	<path style="opacity:0.5;fill:#995235;" d="M713.364,60.286c-0.768-2.463-2.198-4.779-4.619-6.678
		C710.59,55.591,712.147,57.861,713.364,60.286z"/>
	<path style="fill:#995235;" d="M709.151,67.903c0,0-0.233-15.764-12.672-17.377c-1.917-0.249-11.98-0.051-14.029,0.148
		c-16.932,1.643-13.051,20.491-13.051,20.491c6.544-2.834,12.292-9.12,13.925-15.074C684.806,60.426,695.913,67.82,709.151,67.903z"
		/>
	<path style="opacity:0.5;fill:#995235;" d="M701.441,59.362c-1.506-0.921-2.898-2.006-4.137-3.245
		c1.685,2.528,2.528,5.898,5.898,6.741c-5.898,0-10.954-4.213-13.481-9.268c0,2.528,0.843,4.213,2.528,5.898
		c-3.403-1.361-6.255-3.826-9.003-6.498c-0.752,3.069-2.362,5.752-4.816,8.273c-1.019,1.047-2.086,1.966-3.211,2.759
		c-1.997,1.408-3.329,3.605-3.664,6.025c-0.002,0.015-0.004,0.03-0.006,0.044c5.622-3.16,10.324-8.707,11.776-13.998
		c1.403,4.102,11.426,10.939,23.715,11.733c-0.053-0.368-0.117-0.731-0.191-1.088C706.206,63.62,704.155,61.021,701.441,59.362z"/>
	<g>
		<path style="fill:#FDFAEE;" d="M680.035,82.113c0.603-0.073,2.78-0.268,3.023-0.5c0.108-0.104,0.223-0.179,0.336-0.263
			c0.523-0.671,0.842-1.493,0.842-2.391c0-0.397-0.079-0.774-0.192-1.137c-2.935-1.635-5.555-1.272-8.165,0.003
			c-0.112,0.362-0.191,0.737-0.191,1.134c0,0.845,0.276,1.629,0.744,2.278C677.516,81.891,678.746,82.269,680.035,82.113z"/>
		<path style="fill:#321413;" d="M678.44,81.643c0.791,0.153,1.362,0.244,2.147,0.243c1.273-0.002,2.503-0.328,3.258-1.244
			c-0.421,1.31-0.684,2.087-4.66,1.903c-1.771-0.082-2.516-0.561-3.164-2.016C676.699,81.131,677.548,81.47,678.44,81.643z"/>
		<g>
			<g>
				<path style="fill:#633837;" d="M679.148,79.171c0,1.222,1.004,2.212,2.242,2.212c1.238,0,2.242-0.991,2.242-2.212
					s-1.004-2.212-2.242-2.212C680.152,76.959,679.148,77.949,679.148,79.171z"/>
				<path style="fill:#321413;" d="M680.028,79.171c0,0.742,0.61,1.344,1.362,1.344s1.362-0.602,1.362-1.344
					c0-0.742-0.61-1.344-1.362-1.344S680.028,78.429,680.028,79.171z"/>
			</g>
			<path style="fill:#FDFAEE;" d="M682.829,78.641c0,0.243-0.197,0.44-0.44,0.44c-0.243,0-0.44-0.197-0.44-0.44
				c0-0.243,0.197-0.44,0.44-0.44C682.632,78.201,682.829,78.398,682.829,78.641z"/>
		</g>
		<path style="fill:#974C40;" d="M682.771,78.018c-0.977-0.201-2.027-0.361-3.046-0.302c-1.571,0.092-2.779,0.412-4.027,1.06
			c0.102-1.565,0.923-3.286,4.236-3.446c3.197-0.154,4.063,1.793,4.281,3.28C683.809,78.341,683.325,78.132,682.771,78.018z"/>
		<path style="fill:#321413;" d="M682.771,78.35c-0.977-0.276-2.027-0.496-3.046-0.415c-1.571,0.126-2.779,0.566-4.027,1.456
			c-1.177-0.472-2.221-1.402-2.116-2.372c0,0,1.571,0.531,2.862-0.081c0.786-0.373,1.801-0.869,3.29-0.967
			c3.197-0.212,4.262,1.151,4.48,3.193C683.809,78.793,683.325,78.506,682.771,78.35z"/>
	</g>
	<g>
		<path style="fill:#FDFAEE;" d="M699.104,82.113c-0.603-0.073-2.78-0.268-3.023-0.5c-0.108-0.104-0.223-0.179-0.336-0.263
			c-0.523-0.671-0.842-1.493-0.842-2.391c0-0.397,0.079-0.774,0.192-1.137c2.935-1.635,5.555-1.272,8.165,0.003
			c0.112,0.362,0.191,0.737,0.191,1.134c0,0.845-0.275,1.629-0.744,2.278C701.624,81.891,700.393,82.269,699.104,82.113z"/>
		<path style="fill:#321413;" d="M700.699,81.643c-0.791,0.153-1.362,0.244-2.147,0.243c-1.273-0.002-2.503-0.328-3.258-1.244
			c0.421,1.31,0.684,2.087,4.66,1.903c1.771-0.082,2.516-0.561,3.164-2.016C702.441,81.131,701.592,81.47,700.699,81.643z"/>
		<g>
			<g>
				<path style="fill:#633837;" d="M698.482,79.171c0,1.222,1.004,2.212,2.242,2.212s2.242-0.991,2.242-2.212
					s-1.004-2.212-2.242-2.212S698.482,77.949,698.482,79.171z"/>
				<path style="fill:#321413;" d="M699.363,79.171c0,0.742,0.61,1.344,1.362,1.344s1.362-0.602,1.362-1.344
					c0-0.742-0.61-1.344-1.362-1.344S699.363,78.429,699.363,79.171z"/>
			</g>
			<path style="fill:#FDFAEE;" d="M702.164,78.641c0,0.243-0.197,0.44-0.44,0.44c-0.243,0-0.44-0.197-0.44-0.44
				c0-0.243,0.197-0.44,0.44-0.44C701.967,78.201,702.164,78.398,702.164,78.641z"/>
		</g>
		<path style="fill:#974C40;" d="M696.369,78.018c0.977-0.201,2.027-0.361,3.046-0.302c1.571,0.092,2.779,0.412,4.026,1.06
			c-0.102-1.565-0.923-3.286-4.236-3.446c-3.196-0.154-4.063,1.793-4.281,3.28C695.33,78.341,695.815,78.132,696.369,78.018z"/>
		<path style="fill:#321413;" d="M696.369,78.35c0.977-0.276,2.027-0.496,3.046-0.415c1.571,0.126,2.779,0.566,4.026,1.456
			c1.177-0.472,2.221-1.402,2.116-2.372c0,0-1.571,0.531-2.862-0.081c-0.786-0.373-1.801-0.869-3.29-0.967
			c-3.196-0.212-4.262,1.151-4.48,3.193C695.33,78.793,695.815,78.506,696.369,78.35z"/>
	</g>
	<g>
		<path style="fill:#E95E68;" d="M692.285,95.491c-1.633,0.432-3.573,0.913-3.573,0.913s-5.077-1.56-5.282-1.734
			c-0.362-0.306-1.212-0.525-1.651-0.695c-0.206-0.08-0.355-0.149-0.412,0.108c-0.11,0.491,1.005,0.349,1.885,1.589
			c0.37,0.521,2.624,3.744,5.46,3.744c3.122,0,4.899-3.05,5.447-3.719c0.641-0.782,1.811-1.041,1.919-1.459
			c0.132-0.509-0.266-0.359-0.696-0.081C694.424,94.776,693.372,95.203,692.285,95.491z"/>
		<path style="fill:#950000;" d="M687.777,96.501c1.568,0.278,2.969-0.251,4.058-1.219c-0.246-0.07-0.494-0.132-0.745-0.173
			c-1.245-0.202-3.762-0.365-5.479,0.151C686.304,95.856,687.023,96.367,687.777,96.501z"/>
		<path style="fill:#E95E68;" d="M692.088,93.459c-1.126-1.176-2.559-0.962-3.373,0.895c-0.815-1.857-1.893-2.087-3.574-1.006
			c-2.057,1.322-3.567,0.829-3.567,0.829c3.33,2.128,7.141,1.705,7.141,1.705s4.514,0.373,7.341-1.606
			C696.055,94.275,693.405,94.834,692.088,93.459z"/>
	</g>
	<path style="fill:#E95E68;" d="M722.682,132.028c0.408-3.58,1.542-7.053,3.62-9.876c-5.272-3.124-12.266-4.393-17.394-6.083
		c-0.685,1.005-13.416,19.577-18.201,19.626c-0.094-0.001-0.494-0.001-0.588,0c-4.785-0.049-17.516-18.621-18.201-19.626
		c-6.544,2.156-14.085,2.691-20.312,6.603c0.923,1.848,0.439,5.218,1.118,7.268c2.457,7.414,5.668,14.442,7.376,22.12
		c2.727,12.256,5.176,33.514,5.838,45.965l0.243,0.091c7.622,2.848,15.941,4.103,24.233,3.869c8.292,0.234,16.611-1.02,24.233-3.869
		l0.243-0.091c0.662-12.451,3.11-33.709,5.838-45.965c0.048-0.216,0.109-0.427,0.159-0.642c-0.583-5.083-0.495-10.084,0.645-15.285
		C721.837,134.739,722.201,133.359,722.682,132.028z"/>
	<path style="opacity:0.65;fill:#CFB6B5;" d="M663.907,147.234c-1.548-5.366-3.852-9.914-8.258-13.536
		c-0.692-0.569-1.422-1.077-2.168-1.559c2.327,6.617,5.08,13.007,6.619,19.921c2.727,12.256,5.176,33.514,5.838,45.965l0.243,0.091
		c3.306,1.236,6.748,2.153,10.257,2.798C669.55,193.667,666.092,154.807,663.907,147.234z"/>
	<g>
		<g>
			<g>
				<path style="fill:#C1414D;" d="M684.198,147.821c0,0.901,0.73,1.632,1.632,1.632c0.901,0,1.632-0.73,1.632-1.632
					c0-0.901-0.731-1.632-1.632-1.632C684.929,146.189,684.198,146.92,684.198,147.821z"/>
			</g>
			<g>
				<path style="fill:#C1414D;" d="M684.198,158.605c0,0.901,0.73,1.632,1.632,1.632c0.901,0,1.632-0.73,1.632-1.632
					c0-0.901-0.731-1.632-1.632-1.632C684.929,156.974,684.198,157.704,684.198,158.605z"/>
			</g>
			<g>
				<path style="fill:#C1414D;" d="M684.198,169.39c0,0.901,0.73,1.632,1.632,1.632c0.901,0,1.632-0.73,1.632-1.632
					c0-0.901-0.731-1.632-1.632-1.632C684.929,167.758,684.198,168.489,684.198,169.39z"/>
			</g>
			<g>
				<path style="fill:#C1414D;" d="M684.198,180.174c0,0.901,0.73,1.632,1.632,1.632c0.901,0,1.632-0.73,1.632-1.632
					c0-0.901-0.731-1.632-1.632-1.632C684.929,178.543,684.198,179.273,684.198,180.174z"/>
			</g>
			<g>
				<path style="fill:#C1414D;" d="M684.198,190.693c0,0.901,0.73,1.632,1.632,1.632c0.901,0,1.632-0.73,1.632-1.632
					c0-0.901-0.731-1.632-1.632-1.632C684.929,189.061,684.198,189.792,684.198,190.693z"/>
			</g>
			<g>
				<path style="fill:#C1414D;" d="M684.198,180.174c0,0.901,0.73,1.632,1.632,1.632c0.901,0,1.632-0.73,1.632-1.632
					c0-0.901-0.731-1.632-1.632-1.632C684.929,178.543,684.198,179.273,684.198,180.174z"/>
			</g>
		</g>
	</g>
	<path style="fill:#CA3348;" d="M690.413,138.627c0,0-1.408,37.386,0.354,59.873C690.767,198.5,691.096,146.905,690.413,138.627z"/>
	<path style="opacity:0.65;fill:#CFB6B5;" d="M712.355,171.022c-2.053,17.634-5.101,26.414-7.472,29.793
		c3.337-0.639,6.612-1.521,9.763-2.699l0.243-0.091c0.661-12.451,3.11-33.709,5.838-45.965c0.492-2.21,1.112-9.057,1.799-11.185
		c-3.194,2.539-5.017,5.689-6.877,11.364C713.867,157.677,713.017,165.338,712.355,171.022z"/>
	<path style="fill:#F2AB88;" d="M660.246,302.167c0,0-0.857,6.202-3.25,11c-1.898,3.807-4.379,8.22-5.062,12.184
		c-1.545,8.96-0.927,50.052-1.854,53.142c-0.927,3.09-3.708,19.156-2.781,23.172c0.927,4.017,13.138,7.008,13.447,3.918
		c0.309-3.09-2.743-26.166-2.633-28.635c0.674-15.073,13.903-41.71,13.594-49.125c-0.309-7.415,9.578-23.227,9.578-23.227
		S667.662,297.786,660.246,302.167z"/>
	<path style="opacity:0.32;fill:#DAAB88;" d="M664.628,317.629c3.509,0.927,6.693,0.474,9.89-0.206
		c2.827-6.517,6.767-12.827,6.767-12.827s-13.624-6.809-21.04-2.429c0,0-0.857,6.202-3.25,11c-0.096,0.193-0.204,0.401-0.302,0.597
		C659.214,315.396,661.786,316.878,664.628,317.629z"/>
	<path style="fill:#F2AB88;" d="M696.751,304.596c0,0,4.017,14.267,3.399,17.048c-0.618,2.781-2.96,10.505,0.065,26.571
		c3.025,16.066,3.952,24.099,3.025,29.352c-0.927,5.252-3.708,28.895,2.472,30.668c4.161,1.194,6.719-0.755,6.828-10.109
		c0.046-3.968,0.251-9.845-1.081-16.402c-0.462-2.275-0.52-4.606-0.268-6.913c0.467-4.287,1.365-11.446,2.82-18.935
		c2.335-12.022,6.074-24.921,4.677-34.54c-2.781-19.156-2.472-22.245-2.472-22.245S706.935,294.252,696.751,304.596z"/>
	<path style="opacity:0.32;fill:#DAAB88;" d="M717.74,314.554c-1.755-13.128-1.524-15.465-1.524-15.465s-9.28-4.837-19.465,5.507
		c0,0,1.976,7.023,2.942,12.174C706.023,317.595,712.801,317.793,717.74,314.554z"/>
	<path style="fill:#333333;" d="M648.919,383.977c0,0,0.43,17.21,4.869,17.612c8.125,0.734,4.653-19.375,4.653-19.375
		s3.845,21.738,3.92,26.476c0.034,2.144-4.14,7.265-6.704,7.265s-7.34-4.866-8.544-9.037S647.757,389.46,648.919,383.977z"/>
	<path style="fill:#333333;" d="M711.812,383.977c0,0-0.413,17.508-4.869,17.612c-6.947,0.162-4.352-19.375-4.352-19.375
		s-4.129,21.738-4.222,26.476c-0.032,1.644,4.14,7.265,6.704,7.265c2.565,0,7.34-4.866,8.544-9.037S712.974,389.46,711.812,383.977z
		"/>
	<path style="fill:#333333;" d="M666.472,195.686c0,0-17.104,28.98-12.185,57.314c5.42,31.223-4.035,44.743-8.206,51.596
		c0,0,27.189,19.211,77.241,5.307c0,0-4.326-15.757-2.163-31.823c2.163-16.066,9.008-49.234-6.131-82.393
		C715.028,195.686,683.465,204.437,666.472,195.686z"/>
	<g>
		<g>
			<path style="fill:#D8D8D7;" d="M647.407,209.478l-5.967,28.298c-0.423,2.007,0.705,4.016,2.601,4.633l51.193,16.634
				c2.18,0.708,4.473-0.695,4.92-3.012l7.13-37.004c0.43-2.228-1.035-4.374-3.21-4.703l-52.356-7.928
				C649.72,206.092,647.837,207.439,647.407,209.478z"/>
			<path style="fill:#E4E4E3;" d="M647.253,209.398l-5.815,27.577c-0.412,1.956,0.687,3.914,2.535,4.514l49.888,16.21
				c2.125,0.69,4.359-0.677,4.794-2.935l6.949-36.061c0.419-2.172-1.009-4.263-3.129-4.584l-51.022-7.726
				C649.506,206.099,647.671,207.412,647.253,209.398z"/>
			<path style="fill:#E4E4E3;" d="M676.358,234.234c-3.714-3.175-5.822-7.568-8.234-11.716c-2.667-4.587-5.347-9.379-6.538-14.59
				l-10.133-1.535c-1.946-0.295-3.781,1.018-4.2,3.004l-5.815,27.577c-0.412,1.956,0.687,3.914,2.535,4.514l49.888,16.21
				c2.125,0.69,4.359-0.678,4.794-2.935l3.948-20.486C694.679,238.135,683.339,240.203,676.358,234.234z"/>
			<path style="opacity:0.5;fill:#E4E4E3;" d="M687.162,250.766c-0.182-2.606-0.593-3.556-4.529-5.867
				c-3.353-1.34-9.871-9.844-10.841-10.8c-2.64-2.602-5.168-5.31-7.468-8.221c-1.98-2.506-3.495-5.9-5.747-8.125
				c-5.921-5.848-6.902,6.218-6.845,10.021c0.053,3.539-0.14,7.192,0.211,10.715c0.214,2.154,1.017,4.114,1.687,6.137l31.209,10.141
				C685.133,253.679,687.253,252.065,687.162,250.766z"/>
			<path style="fill:#FFFFFF;" d="M676.179,217.761c0,0.893-0.82,1.616-1.832,1.616c-1.012,0-1.832-0.724-1.832-1.616
				c0-0.893,0.82-1.616,1.832-1.616C675.359,216.145,676.179,216.869,676.179,217.761z"/>
		</g>
		<path style="fill:#9C0010;" d="M655.161,243.559c0,0,15.946-1.828,18.127-8.225C673.288,235.335,654.45,223.493,655.161,243.559z"
			/>
		<g>
			<path style="fill:#F2AB88;" d="M659.09,234.206c0,0,0.423,6.408-0.134,10.711c-0.257,1.981,0.757,3.783,3.612,9.185
				c0.277,0.524,1.176,2.054,2.04,2.227c0.572,0.115,1.192-0.051,1.399-0.253c0.163-0.159,0.31-0.348,0.434-0.573
				c0,0,0.76,1.156,1.807,1.63c0.888,0.402,1.776-0.324,2.02-0.698c0.27-0.414,0.467-0.753,0.467-0.753s1.005,1.54,2.204,1.362
				c0.798-0.119,1.167-0.831,1.514-2.02c0,0,1.487,1.187,2.399,0.884c0.485-0.161,0.907-0.483,1.977-2.153l-1.721-1.247
				c0,0-1.267-0.243-3.907-3.14c-1.192-1.308-1.042-3.138,0.314-2.824c1.766,0.409,1.164,1.787,3.781,3.705
				c2.313,1.695,4.855,2.126,5.659,0.675c1.027-1.852-3.098-3.832-4.306-4.854c-2.59-2.192-5.452-6.581-6.258-7.08
				c-1.327-0.822-6.325-2.441-6.423-5.202L659.09,234.206z"/>
			<path style="opacity:0.55;fill:#DCB890;" d="M658.888,245.482c2.591-5.355,6.474-7.149,12.948-6.787
				c-1.802-0.89-5.782-2.443-5.869-4.906l-6.877,0.417c0,0,0.423,6.408-0.134,10.711
				C658.93,245.112,658.907,245.298,658.888,245.482z"/>
			<path style="opacity:0.65;fill:#D69C7C;" d="M674.233,255.632c0.08-0.193,0.153-0.387,0.209-0.576
				c-0.233-0.561-3.196-4.45-4.101-5.671C670.229,249.616,672.907,254.095,674.233,255.632z"/>
			<path style="opacity:0.65;fill:#D69C7C;" d="M670.337,256.327c0,0,0.331-0.425,0.387-0.614c-0.233-0.561-3.375-4.516-4.281-5.737
				C666.332,250.206,669.011,254.789,670.337,256.327z"/>
			<path style="opacity:0.65;fill:#D69C7C;" d="M666.108,255.944c0,0,0.279-0.295,0.332-0.476c-0.222-0.535-2.12-3.376-2.985-4.542
				C663.349,251.146,664.82,254.028,666.108,255.944z"/>
			<path style="fill:#FFD7C0;" d="M679.109,248.538c1.023-1.289,3.33,0.676,3.36,0.807c0,0,0.127,1.375-1.62,1.757
				c-0.746-0.212-1.085-0.553-1.432-0.908C678.797,249.561,678.812,248.912,679.109,248.538z"/>
		</g>
		<path style="fill:#E95E68;" d="M651.606,122.672c0,0-4.689,11.994-10.981,35.203c-3.406,12.563-6.808,26.738-6.512,35.349
			c0.018,0.514,0.336,1.156,0.61,1.95c3.628,10.534,18.969,45.009,20.439,48.386c0,0,5.753-8.387,18.127-8.225
			c0,0-21.208-40.057-21.682-41.795c-0.474-1.738,11.333-32.369,11.598-37.52C663.468,150.868,667.172,131.531,651.606,122.672z"/>
		<path style="opacity:0.65;fill:#CFB6B5;" d="M657.184,164.032c-6.922,17.068-5.627,25.172-6.013,29.012
			c0.145,0.053,0.296,0.099,0.439,0.155c0.421-3.737,11.339-32.227,11.593-37.179c0.093-1.81,0.603-5.376,0.555-9.619
			C662.712,148.969,658.517,160.743,657.184,164.032z"/>
	</g>
	<g>
		<path style="fill:#9C0010;" d="M739.454,173.174c0,0,3.771-7.901,10.831-4.835c7.06,3.066,7.985,8.747,1.722,13.173
			C745.744,185.937,735.536,179.046,739.454,173.174z"/>
		<path style="fill:#D98967;" d="M736.595,177.44l9.356-7.295l9.934,4.694c0,0-4.49,6.018-11.805,8.601
			S734.622,179.087,736.595,177.44z"/>
		<path style="fill:#E95E68;" d="M726.248,122.083c1.193,2.271,2.974,7.194,5.047,17.859c3.083,15.853,1.883,33.495,1.883,33.495
			l10.35-3.773c0,0-6.378,4.768-0.236,9.312c5.916,4.377,12.417,1.994,12.852-5.012c0,0,1.021,6.392-2.363,8.538
			c-5.83,3.698-28.463,15.482-30.308,15.146c-4.861-0.886-8.328-23.966-3.985-53.314
			C720.632,136.607,725.248,120.179,726.248,122.083z"/>
		<path style="opacity:0.65;fill:#CFB6B5;" d="M722.536,182.957c2.073,6.712,14.558-1.157,14.558-1.157
			c1.399-1.733,3.055-3.014,4.87-4.014c0.358,0.396,0.793,0.794,1.328,1.19c5.916,4.377,12.417,1.994,12.852-5.012
			c0,0,1.021,6.392-2.363,8.538c-5.83,3.698-28.463,15.482-30.307,15.146c-4.068-0.742-7.818-18.112-4.985-45.438
			C719.78,159.91,720.258,175.58,722.536,182.957z"/>
		<path style="fill:#F2AB88;" d="M748.876,165.609c0,0-8.559,6.835-7.13,9.04c1.429,2.206,6.282,5.184,11.026,3.679
			c3.813-1.209,7.999-13.136,7.852-14.252c-0.305-2.32-4.922-5.393-5.3-5.455C754.948,158.559,748.876,165.609,748.876,165.609z"/>
		<g>
			<g>
				<polygon style="fill:#3E2D2C;" points="739.253,139.67 722.674,188.901 724.064,189.68 742.63,185.19 766.596,133.395 
					764.91,132.823 				"/>
				<polygon style="fill:#594B4A;" points="740.642,140.448 724.064,189.68 744.02,185.969 766.596,133.395 				"/>
				<path style="opacity:0.32;fill:#434036;" d="M751.803,161.407c-5.933,4.001-13.195,4.063-18.52,0.894l-9.22,27.379l19.956-3.711
					l12.184-28.374C754.844,159.027,753.392,160.336,751.803,161.407z"/>
			</g>
			<path style="opacity:0.5;fill:#8A949A;" d="M735.679,169.269c0,0-0.982-0.7-0.879-1.783c0.151-1.588,1.146-1.726,1.146-1.726
				s-0.578-1.07-0.289-2.042c0.542-1.827,2.445-1.68,2.445-1.68c-1.107-1.014-0.327-3.853,1.713-4.167
				c4.44-0.685,11.208-0.865,13.955,1.006c0.582,0.397,1.375,0.302,2.06,0.456c-5.514,3.816-12.34,8.625-19.004,13.53
				C735.124,172.799,734.59,170.142,735.679,169.269z"/>
		</g>
		<g>
			<path style="fill:#F2AB88;" d="M751.109,167.376c-0.691-0.455-1.481-0.748-2.304-0.828c-1.349-0.132-3.349-0.371-3.77-0.665
				c-0.61-0.425-7.381,1.368-7.506-1.866c-0.017-0.422,0.261-0.803,0.653-0.959c1.047-0.417,3.617-1.113,8.781-0.877
				c7.232,0.33,6.348,0.677,6.829,0.871c0.481,0.194,4.714,3.189,4.359,3.871C757.812,167.571,757.699,171.715,751.109,167.376z"/>
			<path style="fill:#FFD7C0;" d="M740.286,162.937c0,0,1.2,0.785,0.364,2.278c-0.088,0.158-2.545,0.412-2.715-1.17
				C737.851,163.262,740.286,162.937,740.286,162.937z"/>
		</g>
		<g>
			<path style="fill:#F2AB88;" d="M748.283,169.829c0,0-3.129-0.923-3.903-1.003c-0.739-0.076-8.093,0.791-7.594-2.153
				c0.049-0.29,0.256-0.53,0.534-0.624c1.148-0.39,4.699-1.386,9.307-0.642c5.643,0.912,8.754,2.491,8.845,3.595
				C755.562,170.105,755.663,174.152,748.283,169.829z"/>
			<path style="fill:#FFD7C0;" d="M739.052,165.983c0.184-0.037,0.375,0.016,0.504,0.153c0.271,0.29,0.619,0.899,0.136,1.863
				c-0.076,0.15-2.4,0.405-2.449-1.123C737.227,166.403,738.489,166.096,739.052,165.983z"/>
		</g>
		<g>
			<path style="fill:#F2AB88;" d="M746.481,173.082c-0.31-0.178-0.645-0.312-0.996-0.383c-1.009-0.205-3.15-0.637-3.516-0.69
				c-0.429-0.062-4.022,0.217-4.784-1.687c-0.177-0.442,0.076-0.949,0.537-1.072c0.882-0.235,3.073-0.762,7.106-0.347
				c0,0,3.608,0.694,4.477,1.146c0.869,0.452,3.945,1.716,3.761,2.513C752.886,173.341,752.745,176.678,746.481,173.082z"/>
			<path style="fill:#FFD7C0;" d="M739.777,169.4c0,0,0.648,1.003-0.073,1.799c-0.107,0.118-2.498-0.301-1.994-1.511
				C737.815,169.437,739.777,169.4,739.777,169.4z"/>
		</g>
		<g>
			<path style="fill:#F2AB88;" d="M754.051,163.877c-0.547-0.432-1.334-0.976-2.016-1.123c-1.284-0.277-3.737-0.812-4.509-1.015
				c-0.982-0.258-8.669,1.81-8.246-1.54c0.063-0.501,0.403-0.922,0.89-1.051c1.87-0.495,7.367-1.662,13.961-0.394
				c0.489,0.094,0.951,0.305,1.348,0.605c1.391,1.048,4.617,3.633,4.342,4.872c-0.35,1.576-1.148,3.191-2.395,2.18
				C756.516,165.673,755.341,164.894,754.051,163.877z"/>
			<path style="fill:#FFD7C0;" d="M742.007,158.981c0,0,1.64,0.587,0.718,2.533c-0.088,0.185-3.063,0.486-3.126-1.303
				C739.569,159.36,742.007,158.981,742.007,158.981z"/>
		</g>
	</g>
</g>
<g>
	<path style="fill:#995235;" d="M285.332,130.511c19.714-0.214,34.438-3.797,34.438-3.797s-2.538,0.423-5.077-42.751
		c-2.252-38.301-24.34-40.634-29.298-40.634c-0.654,0-1.308,0-1.962,0c-4.957,0-27.046,2.333-29.298,40.634
		c-2.538,43.174-5.077,42.751-5.077,42.751s14.724,3.583,34.438,3.797l0,0.01c0.308,0,0.611-0.004,0.917-0.005
		c0.306,0.002,0.609,0.005,0.917,0.005L285.332,130.511z"/>
	<path style="opacity:0.5;fill:#8A2F17;" d="M285.034,130.514c13.309-0.169,23.249-3,23.249-3s-1.714-2.34-3.427-36.454
		c-1.703-33.895-20.204-28.798-20.441-28.731c-0.237-0.067-18.738-5.164-20.441,28.731c-1.714,34.114-3.427,36.454-3.427,36.454
		s9.94,2.831,23.249,3l0,0.008c0.208,0,0.413-0.003,0.619-0.004c0.207,0.001,0.411,0.004,0.619,0.004L285.034,130.514z"/>
	<g>
		<path style="fill:#F2AB88;" d="M273.705,132.307c1.821,1.339,3.69,2.715,5.195,4.419c0.559,0.642,1.131,1.272,1.703,1.901
			c2.768-0.283,5.589-0.832,8.195-1.795c6.352-2.347,12.495-7.027,17.001-12.08c1.702-1.908,2.005-4.875,3.135-7.153
			c-3.736-1.021-6.624-1.58-9.431-2.724c-7.451-3.036-7.269-17.221-7.269-17.221h-16.06c0,0,0,14.627-7.451,17.663
			c-3.563,1.451-8.469,2.466-13.209,3.901C259.968,124.317,267.727,127.91,273.705,132.307z"/>
		<path style="opacity:0.55;fill:#DCB890;" d="M276.175,97.753c-0.001,0.116-0.006,0.338-0.018,0.654
			c-0.001,0.023-0.002,0.044-0.003,0.067c-0.013,0.32-0.035,0.722-0.07,1.193c-0.002,0.029-0.004,0.057-0.007,0.086
			c-0.037,0.483-0.088,1.031-0.157,1.629c-0.003,0.028-0.007,0.056-0.01,0.085c-0.072,0.605-0.164,1.256-0.28,1.938
			c-0.006,0.034-0.012,0.067-0.017,0.101c-0.118,0.685-0.262,1.396-0.436,2.118c-0.008,0.034-0.017,0.069-0.025,0.103
			c-0.176,0.722-0.383,1.452-0.626,2.174c-0.013,0.037-0.025,0.074-0.038,0.111c-0.245,0.717-0.526,1.422-0.847,2.099
			c-0.019,0.04-0.038,0.079-0.057,0.118c-0.162,0.334-0.331,0.662-0.513,0.979c0.508,0.213,6.064,2.428,10.656,2.428
			c6.705,0,10.103-1.959,11.427-2.775c-2.913-5.391-2.916-13.207-2.916-13.207h-8.03h-8.03c0,0,0,0.035-0.001,0.084
			C276.175,97.745,276.175,97.746,276.175,97.753z"/>
	</g>
	<g>
		<path style="fill:#F2AB88;" d="M260.573,80.424c2.466-3.342,8.056,2.1,8.056,2.1s3.471,4.055-0.571,8.958
			c-2.021,2.451-4.355,0.598-5.917-2.315C260.58,86.253,258.815,82.807,260.573,80.424z"/>
		<path style="fill:#DB7A5B;" d="M264.12,89.503c0.542,0.55,1.235,0.995,2.054,0.846c0.344-0.063,0.664-0.573,0.57-0.865
			c-0.234-0.725-2.545-2.016-1.969-4.039c0.582-2.043-2.013-4.001-2.822-2.877C261.323,83.444,262.085,87.44,264.12,89.503z"/>
	</g>
	<g>
		<path style="fill:#F2AB88;" d="M308.249,80.424c-2.466-3.342-8.056,2.1-8.056,2.1s-3.471,4.055,0.571,8.958
			c2.021,2.451,4.355,0.598,5.917-2.315C308.243,86.253,310.007,82.807,308.249,80.424z"/>
		<path style="fill:#DB7A5B;" d="M304.702,89.503c-0.542,0.55-1.235,0.995-2.054,0.846c-0.344-0.063-0.664-0.573-0.57-0.865
			c0.234-0.725,2.545-2.016,1.969-4.039c-0.582-2.043,2.014-4.001,2.822-2.877C307.499,83.444,306.737,87.44,304.702,89.503z"/>
	</g>
	<path style="fill:#F2AB88;" d="M304.635,63.667c-0.541-3.029-2.611-5.587-5.233-7.681c-4.386-3.504-9.658-7.123-14.931-7.123
		c-5.272,0-10.544,3.619-14.93,7.123c-2.622,2.094-4.693,4.653-5.233,7.681c0,0-1.284,22.111,4.653,31.237
		c4.599,7.069,10.39,12.597,15.511,12.597c5.121,0,10.912-5.528,15.511-12.597C305.919,85.777,304.635,63.667,304.635,63.667z"/>
	<path style="opacity:0.32;fill:#DCAE90;" d="M272.629,99.884c0.392-0.128,0.831-0.246,1.287-0.336
		c0.827-0.162,1.683,0.107,2.271,0.71c0.028,0.029,0.063,0.065,0.119,0.121c0.888,0.899,1.668,1.896,2.375,2.943
		c0.644,0.953,1.284,1.76,1.938,2.463c0.604,0.649,1.535,0.868,2.388,0.628c3.405-0.959,6.69-2.721,9.985-5.346
		c1.297-1.033,2.76-1.75,4.266-2.347c-4.041,5.145-8.635,8.781-12.788,8.781c-1.042,0-2.112-0.239-3.193-0.663
		c0.018-0.004,0.036-0.009,0.055-0.013C278.418,105.704,275.416,103.197,272.629,99.884z"/>
	<ellipse style="fill:#FDFAEE;" cx="274.797" cy="79.003" rx="4.292" ry="4.063"/>
	<path style="fill:#321413;" d="M273.225,81.933c0.794,0.154,1.476,0.249,2.264,0.248c1.278-0.002,2.448-0.568,3.207-1.488
		c-0.678,1.4-2.167,2.374-3.9,2.374c-1.78,0-3.307-1.026-3.957-2.488C271.52,81.184,272.329,81.759,273.225,81.933z"/>
	<g>
		<path style="fill:#633837;" d="M270.84,78.622c0,1.371,1.126,2.483,2.516,2.483c1.39,0,2.516-1.111,2.516-2.483
			c0-1.371-1.126-2.483-2.516-2.483C271.967,76.139,270.84,77.251,270.84,78.622z"/>
		<path style="fill:#321413;" d="M271.828,78.622c0,0.833,0.684,1.508,1.528,1.508c0.844,0,1.528-0.675,1.528-1.508
			c0-0.833-0.684-1.508-1.528-1.508C272.512,77.114,271.828,77.789,271.828,78.622z"/>
	</g>
	<path style="fill:#974C40;" d="M277.617,77.774c-0.981-0.277-2.036-0.498-3.059-0.416c-1.578,0.127-2.79,0.568-4.043,1.462
		c0.102-2.158,0.927-4.219,4.253-4.44c3.21-0.213,4.08,2.16,4.298,4.211C278.66,78.219,278.174,77.931,277.617,77.774z"/>
	<path style="fill:#321413;" d="M277.617,78.17c-0.981-0.277-2.036-0.498-3.059-0.416c-1.578,0.127-2.79,0.568-4.043,1.462
		c-1.182-0.474-2.231-1.408-2.125-2.382c0,0,1.578,0.533,2.874-0.082c0.789-0.374,1.809-0.872,3.304-0.971
		c3.21-0.213,4.578,1.437,4.498,3.206C278.66,78.615,278.174,78.327,277.617,78.17z"/>
	<path style="fill:#FDFAEE;" d="M275.323,78.326c0,0.273-0.221,0.494-0.494,0.494s-0.494-0.221-0.494-0.494
		c0-0.273,0.221-0.494,0.494-0.494S275.323,78.053,275.323,78.326z"/>
	<path style="fill:#FDFAEE;" d="M297.385,79.003c0,2.244-1.921,4.063-4.292,4.063c-2.37,0-4.292-1.819-4.292-4.063
		c0-2.244,1.922-4.063,4.292-4.063C295.463,74.94,297.385,76.759,297.385,79.003z"/>
	<path style="fill:#321413;" d="M294.665,81.933c-0.794,0.154-1.476,0.249-2.264,0.248c-1.278-0.002-2.448-0.568-3.207-1.488
		c0.678,1.4,2.167,2.374,3.9,2.374c1.78,0,3.307-1.026,3.957-2.488C296.37,81.184,295.561,81.759,294.665,81.933z"/>
	<g>
		<path style="fill:#633837;" d="M294.168,78.622c0,1.371-1.127,2.483-2.516,2.483c-1.39,0-2.516-1.111-2.516-2.483
			c0-1.371,1.126-2.483,2.516-2.483C293.042,76.139,294.168,77.251,294.168,78.622z"/>
		<path style="fill:#321413;" d="M293.18,78.622c0,0.833-0.684,1.508-1.528,1.508s-1.528-0.675-1.528-1.508
			c0-0.833,0.684-1.508,1.528-1.508S293.18,77.789,293.18,78.622z"/>
	</g>
	<path style="fill:#974C40;" d="M290.272,77.774c0.981-0.277,2.036-0.498,3.059-0.416c1.578,0.127,2.79,0.568,4.043,1.462
		c-0.102-2.158-0.926-4.219-4.253-4.44c-3.21-0.213-4.08,2.16-4.298,4.211C289.229,78.219,289.716,77.931,290.272,77.774z"/>
	<path style="fill:#321413;" d="M290.272,78.17c0.981-0.277,2.036-0.498,3.059-0.416c1.578,0.127,2.79,0.568,4.043,1.462
		c1.182-0.474,2.231-1.408,2.125-2.382c0,0-1.578,0.533-2.874-0.082c-0.789-0.374-1.809-0.872-3.304-0.971
		c-3.21-0.213-4.656,1.067-4.498,3.206C289.229,78.615,289.716,78.327,290.272,78.17z"/>
	<path style="fill:#FDFAEE;" d="M292.76,78.326c0,0.273,0.221,0.494,0.494,0.494c0.273,0,0.494-0.221,0.494-0.494
		c0-0.273-0.221-0.494-0.494-0.494C292.982,77.832,292.76,78.053,292.76,78.326z"/>
	
		<radialGradient id="SVGID_00000142143344754997803190000015621215118423062185_" cx="298.1347" cy="86.9565" r="3.8113" gradientTransform="matrix(1.1695 0 0 1 -53.2197 0)" gradientUnits="userSpaceOnUse">
		<stop  offset="0" style="stop-color:#F29788"/>
		<stop  offset="0.6119" style="stop-color:#F2A388"/>
		<stop  offset="0.9198" style="stop-color:#F2AB88"/>
	</radialGradient>
	<path style="fill:url(#SVGID_00000142143344754997803190000015621215118423062185_);" d="M300.224,86.956
		c0,1.943-2.138,3.518-4.776,3.518c-2.638,0-4.776-1.575-4.776-3.518c0-1.943,2.138-3.518,4.776-3.518
		C298.086,83.438,300.224,85.013,300.224,86.956z"/>
	
		<radialGradient id="SVGID_00000129891458288394717050000015336084649659569599_" cx="232.8876" cy="86.9565" r="3.8113" gradientTransform="matrix(-1.1695 0 0 1 545.7594 0)" gradientUnits="userSpaceOnUse">
		<stop  offset="0" style="stop-color:#F29788"/>
		<stop  offset="0.6119" style="stop-color:#F2A388"/>
		<stop  offset="0.9198" style="stop-color:#F2AB88"/>
	</radialGradient>
	<path style="fill:url(#SVGID_00000129891458288394717050000015336084649659569599_);" d="M268.622,86.956
		c0,1.943,2.138,3.518,4.776,3.518c2.637,0,4.776-1.575,4.776-3.518c0-1.943-2.138-3.518-4.776-3.518
		C270.76,83.438,268.622,85.013,268.622,86.956z"/>
	<g>
		<path style="fill:#CE7959;" d="M283.483,89.713c-0.124,0-0.241-0.006-0.345-0.019c-0.781-0.09-2.186-0.369-2.816-1.225
			c-0.287-0.39-0.384-0.843-0.288-1.347c0.085-0.447,0.522-1.039,1.075-1.789c0.571-0.775,1.219-1.653,1.498-2.412
			c0.796-2.164,0.914-4.785,0.916-4.811c0.01-0.233,0.222-0.422,0.44-0.405c0.233,0.01,0.415,0.207,0.405,0.44
			c-0.005,0.112-0.126,2.78-0.967,5.067c-0.321,0.873-1.006,1.803-1.612,2.623c-0.411,0.557-0.876,1.187-0.925,1.445
			c-0.051,0.271-0.008,0.49,0.138,0.688c0.317,0.431,1.151,0.762,2.232,0.887c0.603,0.07,1.414-0.128,1.636-0.398
			c0.042-0.051,0.048-0.084,0.029-0.145c-0.071-0.222,0.051-0.461,0.273-0.533c0.222-0.07,0.461,0.051,0.533,0.273
			c0.107,0.334,0.044,0.668-0.18,0.941C285.096,89.515,284.173,89.713,283.483,89.713z"/>
	</g>
	<path style="fill:#6B2F0C;" d="M280.858,69.67c0.219-0.633,0.438-1.642,0.278-1.912c-0.479-0.807-8.712,1.264-9.018,1.381
		c-0.306,0.117-4.751,2.817-4.637,3.367c0.113,0.549,4.617-1.045,5.041-1.095C273.512,71.295,280.239,71.461,280.858,69.67z"/>
	<path style="fill:#6B2F0C;" d="M288.709,70.102c-0.155-0.652-0.273-1.677-0.087-1.93c0.556-0.755,8.544,2.123,8.836,2.27
		c0.293,0.147,4.448,3.275,4.28,3.811c-0.167,0.535-4.491-1.499-4.907-1.59C295.857,72.448,289.147,71.944,288.709,70.102z"/>
	<path style="fill:#995235;" d="M284.563,48.717c0,0,0,0.011-0.001,0.024c0-0.014-0.001-0.024-0.001-0.024
		c-31.761,0-24.523,21.819-22.037,28.991c0.758,2.188,2.029,4.504,3.032,6.349c1.145,2.105,0.776-0.347,0.776-0.347
		c-1.551-11.85,1.763-20.346,1.763-20.346c3.388-8.567,16.468-9.73,16.468-9.73s8.168,7.615,16.468,9.73
		c0,0,3.314,8.496,1.762,20.346c0,0-0.369,2.453,0.776,0.347c1.003-1.844,2.273-4.16,3.032-6.349
		C309.085,70.537,316.323,48.717,284.563,48.717z"/>
	<path style="opacity:0.5;fill:#995235;" d="M308.339,60.252c-0.772-2.473-2.207-4.799-4.638-6.706
		C305.553,55.538,307.116,57.817,308.339,60.252z"/>
	<path style="fill:#995235;" d="M304.108,67.901c0,0-0.234-15.83-12.725-17.449c-1.924-0.25-12.03-0.051-14.088,0.149
		c-17.003,1.65-13.105,20.576-13.105,20.576c6.572-2.846,12.343-9.158,13.983-15.137C279.661,60.393,290.815,67.817,304.108,67.901z
		"/>
	<path style="opacity:0.5;fill:#995235;" d="M296.365,59.324c-1.513-0.925-2.91-2.015-4.154-3.259
		c1.692,2.538,2.538,5.923,5.923,6.769c-5.923,0-10.999-4.23-13.538-9.307c0,2.538,0.846,4.23,2.538,5.923
		c-3.418-1.367-6.281-3.842-9.04-6.525c-0.755,3.082-2.372,5.776-4.836,8.307c-1.023,1.052-2.095,1.975-3.225,2.771
		c-2.006,1.414-3.343,3.62-3.68,6.05c-0.002,0.015-0.004,0.03-0.006,0.044c5.645-3.173,10.367-8.743,11.825-14.057
		c1.409,4.119,11.473,10.985,23.814,11.782c-0.053-0.37-0.118-0.734-0.192-1.093C301.15,63.6,299.091,60.99,296.365,59.324z"/>
	<g>
		<path style="fill:#950000;" d="M283.643,93.626c0,0-4.004-0.352-7.437-0.964c0,0,4.294,5.973,7.437,5.973
			c3.144,0,6.824-5.634,6.824-5.634C287.764,93.386,283.643,93.626,283.643,93.626z"/>
		<g>
			<path style="fill:#FDFAEE;" d="M279.319,95.201c0.877,0.55,6.307,0.878,8.349,0.078c0.369-0.145,1.592-2.19,1.699-2.201
				c-2.558,0.265-5.712,0.548-5.712,0.548s-3.015-0.28-5.974-0.701C277.814,92.945,278.526,94.704,279.319,95.201z"/>
		</g>
		<path style="fill:#E95E68;" d="M275.708,92.422c0,0,0.822,0.991,1.8,2.415c1.477,2.149,3.605,4.53,6.146,4.53
			c2.492,0,4.376-2.138,5.858-4.266c1.029-1.479,2.088-2.679,2.088-2.679c-1.513,0.467-4.556,5.076-7.946,4.997
			C279.21,97.314,277.221,92.888,275.708,92.422z"/>
		<path style="fill:#E95E68;" d="M287.99,92.64c-1.296-0.49-2.815-1.118-4.336,0.412c-1.539-1.544-3.04-0.901-4.336-0.412
			c-1.296,0.489-4.24-0.977-4.24-0.977c0.399,0.52,0.863,1.152,1.425,1.481c2.819,1.652,7.151,0.937,7.151,0.937
			s3.858,0.592,6.585-0.62c0.854-0.38,1.477-1.012,1.991-1.798C292.23,91.663,289.287,93.13,287.99,92.64z"/>
	</g>
	<path style="fill:#E95E68;" d="M303.625,116.07c-0.685,1.005-13.416,19.577-18.201,19.626c-0.094-0.001-0.494-0.001-0.588,0
		c-4.785-0.049-17.516-18.621-18.201-19.626c-6.544,2.156-14.137,2.805-20.365,6.717c0.923,1.848,0.491,5.104,1.17,7.154
		c2.457,7.414,5.668,14.442,7.376,22.12c2.727,12.256,5.176,33.514,5.838,45.965l0.243,0.091c7.622,2.848,15.94,4.103,24.233,3.869
		c8.292,0.234,16.611-1.02,24.233-3.869l0.243-0.091c0.661-12.451,3.11-33.709,5.837-45.965c1.708-7.678,4.919-14.706,7.376-22.12
		c0.679-2.049,1.188-2.892,2.111-4.74C319.77,119.679,310.169,118.226,303.625,116.07z"/>
	<g>
		<g>
			<g>
				<path style="fill:#C1414D;" d="M278.915,147.821c0,0.901,0.73,1.632,1.632,1.632c0.901,0,1.632-0.73,1.632-1.632
					c0-0.901-0.731-1.632-1.632-1.632C279.645,146.189,278.915,146.92,278.915,147.821z"/>
			</g>
			<g>
				<path style="fill:#C1414D;" d="M278.915,158.605c0,0.901,0.73,1.632,1.632,1.632c0.901,0,1.632-0.73,1.632-1.632
					c0-0.901-0.731-1.632-1.632-1.632C279.645,156.974,278.915,157.704,278.915,158.605z"/>
			</g>
			<g>
				<path style="fill:#C1414D;" d="M278.915,169.39c0,0.901,0.73,1.632,1.632,1.632c0.901,0,1.632-0.73,1.632-1.632
					c0-0.901-0.731-1.632-1.632-1.632C279.645,167.758,278.915,168.489,278.915,169.39z"/>
			</g>
			<g>
				<path style="fill:#C1414D;" d="M278.915,180.174c0,0.901,0.73,1.632,1.632,1.632c0.901,0,1.632-0.73,1.632-1.632
					c0-0.901-0.731-1.632-1.632-1.632C279.645,178.543,278.915,179.273,278.915,180.174z"/>
			</g>
			<g>
				<path style="fill:#C1414D;" d="M278.915,190.693c0,0.901,0.73,1.632,1.632,1.632c0.901,0,1.632-0.73,1.632-1.632
					c0-0.901-0.731-1.632-1.632-1.632C279.645,189.061,278.915,189.792,278.915,190.693z"/>
			</g>
			<g>
				<path style="fill:#C1414D;" d="M278.915,180.174c0,0.901,0.73,1.632,1.632,1.632c0.901,0,1.632-0.73,1.632-1.632
					c0-0.901-0.731-1.632-1.632-1.632C279.645,178.543,278.915,179.273,278.915,180.174z"/>
			</g>
		</g>
	</g>
	<path style="fill:#CA3348;" d="M285.129,138.627c0,0-1.408,37.386,0.354,59.873C285.484,198.5,285.812,146.905,285.129,138.627z"/>
	<path style="opacity:0.65;fill:#CFB6B5;" d="M276.254,131.051c-0.026-0.757,0.028-1.481,0.143-2.181
		c-0.618-0.712-1.233-1.447-1.838-2.187c-0.419,2.094-0.996,4.177-1.806,6.258c-2.356,6.052-5.123,11.946-8.013,17.758
		c-1.549,3.116-2.997,6.282-4.589,9.249c-1.646-3.502-3.063-7.096-4.283-10.607c-2.1-6.045-4.786-12.014-7.855-17.734
		c2.365,6.806,5.222,13.354,6.802,20.452c0.812,3.649,1.598,8.104,2.321,12.879l0,0c0.095,0.625,0.188,1.258,0.28,1.894
		c0.026,0.18,0.052,0.36,0.078,0.541c0.278,1.934,0.544,3.906,0.797,5.889c0.027,0.209,0.053,0.418,0.08,0.628
		c0.078,0.616,0.154,1.233,0.229,1.85c0.026,0.212,0.051,0.424,0.076,0.636c0.123,1.028,0.242,2.052,0.357,3.073
		c0.041,0.363,0.082,0.727,0.122,1.088c0.054,0.488,0.106,0.974,0.158,1.458c0.049,0.46,0.096,0.916,0.143,1.371
		c0.043,0.415,0.086,0.832,0.128,1.243c0.078,0.785,0.153,1.561,0.225,2.328c0.031,0.333,0.061,0.661,0.091,0.99
		c0.053,0.578,0.104,1.151,0.152,1.715c0.024,0.278,0.049,0.557,0.071,0.831c0.067,0.804,0.131,1.594,0.189,2.364
		c0.013,0.173,0.025,0.339,0.037,0.51c0.047,0.641,0.092,1.268,0.133,1.88c0.014,0.211,0.028,0.423,0.042,0.63
		c0.048,0.744,0.092,1.474,0.129,2.166l0.243,0.091c0.64,0.239,1.287,0.463,1.937,0.678c0.379,0.126,0.761,0.243,1.143,0.362
		c0.217,0.067,0.433,0.134,0.651,0.198c1.78,0.53,3.585,0.988,5.416,1.357c-0.959-4.281-3.796-17.961-4.028-27.395
		c0.211-1.592,0.526-3.167,1.029-4.702c1.489-4.536,3.245-8.988,5.235-13.329c1.729-3.77,3.263-7.442,4.559-11.385
		c0.6-1.827,1.511-3.677,2.041-5.51C277.265,136.393,276.337,133.419,276.254,131.051z"/>
	<path style="opacity:0.65;fill:#CFB6B5;" d="M306.839,168.442c-1.948,16.398-6.718,29.527-7.24,32.372
		c3.337-0.639,6.612-1.521,9.763-2.699l0.243-0.091c0.661-12.451,3.11-33.709,5.838-45.965c0.492-2.21,1.112-9.057,1.799-11.185
		c-3.194,2.539-5.017,5.689-6.877,11.364C308.641,157.502,307.492,162.942,306.839,168.442z"/>
	<path style="fill:#F2AB88;" d="M254.963,302.167c0,0-0.857,6.202-3.25,11c-1.898,3.807-4.379,8.22-5.062,12.184
		c-1.545,8.96-0.927,50.052-1.854,53.142c-0.927,3.09-3.708,19.156-2.781,23.172c0.927,4.017,13.138,7.008,13.447,3.918
		c0.309-3.09-2.743-26.166-2.633-28.635c0.674-15.073,13.903-41.71,13.594-49.125c-0.309-7.415,9.578-23.227,9.578-23.227
		S262.378,297.786,254.963,302.167z"/>
	<path style="opacity:0.32;fill:#DAAB88;" d="M259.345,317.629c3.509,0.927,6.693,0.474,9.89-0.206
		c2.827-6.517,6.767-12.827,6.767-12.827s-13.624-6.809-21.039-2.429c0,0-0.857,6.202-3.25,11c-0.096,0.193-0.204,0.401-0.303,0.597
		C253.93,315.396,256.503,316.878,259.345,317.629z"/>
	<path style="fill:#F2AB88;" d="M291.467,304.596c0,0,4.017,14.267,3.399,17.048c-0.618,2.781-2.96,10.505,0.065,26.571
		c3.025,16.066,3.952,24.099,3.025,29.352c-0.927,5.252-3.708,28.895,2.472,30.668c4.161,1.194,6.719-0.755,6.827-10.109
		c0.046-3.968,0.251-9.845-1.08-16.402c-0.462-2.275-0.52-4.606-0.268-6.913c0.467-4.287,1.365-11.446,2.82-18.935
		c2.335-12.022,6.074-24.921,4.677-34.54c-2.781-19.156-2.472-22.245-2.472-22.245S301.651,294.252,291.467,304.596z"/>
	<path style="opacity:0.32;fill:#DAAB88;" d="M312.456,314.554c-1.755-13.128-1.524-15.465-1.524-15.465s-9.28-4.837-19.465,5.507
		c0,0,1.976,7.023,2.942,12.174C300.739,317.595,307.518,317.793,312.456,314.554z"/>
	<path style="fill:#333333;" d="M243.635,383.977c0,0,0.43,17.21,4.869,17.612c8.125,0.734,4.653-19.375,4.653-19.375
		s3.845,21.738,3.92,26.476c0.034,2.144-4.14,7.265-6.704,7.265c-2.565,0-7.34-4.866-8.544-9.037S242.474,389.46,243.635,383.977z"
		/>
	<path style="fill:#333333;" d="M306.529,383.977c0,0-0.413,17.508-4.869,17.612c-6.947,0.162-4.352-19.375-4.352-19.375
		s-4.129,21.738-4.222,26.476c-0.032,1.644,4.14,7.265,6.704,7.265s7.34-4.866,8.544-9.037S307.69,389.46,306.529,383.977z"/>
	<path style="fill:#333333;" d="M261.189,195.686c0,0-17.104,28.98-12.185,57.314c5.421,31.223-4.035,44.743-8.206,51.596
		c0,0,27.189,19.211,77.241,5.307c0,0-4.326-15.757-2.163-31.823c2.163-16.066,9.008-49.234-6.131-82.393
		C309.744,195.686,278.182,204.437,261.189,195.686z"/>
	<g>
		<path style="fill:#A64D36;" d="M320.63,263.113c-0.125-0.058-0.252-0.117-0.404-0.188c-0.999-0.46-2.206-1.226-3.112-1.382
			c-0.207-0.036-0.401-0.056-0.598-0.081c-1.164,0.669-2.419,1.499-3.283,2.377c0.194,1.13,0.497,2.24,0.98,3.315
			c1.263,2.808,3.036,2.51,5.053,2.284c0.446-0.05,0.763-0.089,0.991-0.116c0.335-0.681,0.58-1.352,0.601-2.195
			c0.032-1.255-0.001-2.497-0.08-3.734C320.73,263.299,320.674,263.21,320.63,263.113z"/>
		<path style="fill:#B62230;" d="M317.052,250.696c0,0,4.998-5.035,9.852-4.548c4.854,0.488,8.069,6.104,8.069,6.104
			S323.295,253.724,317.052,250.696z"/>
		<g>
			<path style="fill:#4D4D4D;" d="M295.081,314.953c0,0,0.346-36.895,7.506-38.424c7.16-1.53,36.994-3.863,46.327-2.863
				c9.333,1,10,41.287,10,41.287s-37.167,8.713-54.667,6.713C304.247,321.667,298.081,318.574,295.081,314.953z"/>
			<path style="fill:#5C5C5C;" d="M304.071,278.603c4.764,3.909,11.95,5.747,18.018,6.099c6.62,0.384,13.66,0.88,20.259,0.049
				c3.501-0.441,7.662-2.584,11.939-4.559c-1.358-3.728-3.11-6.284-5.374-6.526c-9.333-1-39.167,1.333-46.327,2.863
				c-0.172,0.037-0.337,0.112-0.501,0.188C302.774,277.469,303.499,278.133,304.071,278.603z"/>
			<path style="fill:#252E31;" d="M313.917,275.317c0.203-2.78,0.777-8.272,2.181-9.42c1.898-1.552,16.119-1.998,17.826-1.111
				c1.401,0.728,2.565,7.255,2.809,9.582l1.376,1.087l2.647-1.247c-0.364-1.837-2.036-9.528-3.733-10.637
				c-3.835-2.505-22.02-1.244-23.587,0.938c-2.294,3.195-2.814,9.382-2.902,11.022l1.574,0.999L313.917,275.317z"/>
			<path style="fill:#4A5254;" d="M314.94,276.412c0.192-2.628,0.65-8.089,1.978-9.174c1.794-1.467,17.26-1.717,18.873-0.879
				c1.325,0.688,2.087,6.896,2.318,9.095l3.062-0.127c-0.344-1.737-1.973-9.607-3.47-10.804c-2.825-2.259-22.33-0.69-23.254,0.961
				c-1.815,3.245-2.256,9.494-2.34,11.044L314.94,276.412z"/>
			<path style="fill:#72787A;" d="M323.426,265.979c0.396-0.756,0.858-1.566,1.311-2.401c-0.819,0.055-1.63,0.12-2.414,0.195
				c-0.518,0.84-1.024,1.691-1.53,2.544c0.792-0.091,1.665-0.166,2.573-0.228C323.386,266.053,323.407,266.017,323.426,265.979z"/>
			<g>
				<path style="fill:#72787A;" d="M334.659,263.646c-0.61-0.077-1.274-0.137-1.993-0.176c-0.316,0.824-0.683,1.637-1.08,2.441
					c0.912,0.025,1.724,0.068,2.401,0.127L334.659,263.646z"/>
				<path style="fill:#72787A;" d="M337.701,264.524c-0.262-0.209-0.674-0.384-1.194-0.531c-0.175,0.804-0.372,1.713-0.538,2.495
					c0.427,0.394,0.791,1.359,1.093,2.538c0.291-1.47,0.519-2.959,0.657-4.483C337.712,264.538,337.706,264.529,337.701,264.524z"/>
			</g>
			<path style="fill:#545454;" d="M340.414,281.972c-6.016,0.039-12.033,0.024-18.05,0.024c-5.545,0-11.093-0.077-16.638-0.06
				c-3.592,10.266-1.479,39.73-1.479,39.73c17.5,2,54.667-6.713,54.667-6.713s-0.343-20.473-3.921-32.59
				C350.278,281.404,345.167,281.941,340.414,281.972z"/>
			<path style="opacity:0.35;fill:#545454;" d="M353.623,282.777c-8.191,2.494-17.207,2.663-25.387,4.982
				c-5.46,1.548-10.858,2.477-16.48,3.208c-2.627,0.342-5.208,0.852-7.766,1.454c-0.137,1.848-0.232,3.775-0.288,5.732
				c0.186,0.109,10.149,5.596,19.858,5.846c0,0,1.653,2.678,4.627,2.875c8.75,0.581,8.744-4.667,8.744-4.667
				s11.775-2.542,19.951-11.161c-0.375-2.326-0.819-4.593-1.343-6.684C354.84,284.021,354.187,283.504,353.623,282.777z"/>
			<path style="fill:#6F6F6F;" d="M306.409,295.843c6.117,3.657,13.099,5.678,20.264,5.476c9.825-0.277,26.084-5.306,29.07-16.11
				c-0.882-3.745-2.004-6.998-3.438-9.087c-0.719-0.255-45.291,3.156-45.838,4.125c-1.483,2.628-2.241,7.861-2.587,13.747
				C304.662,294.673,305.498,295.299,306.409,295.843z"/>
		</g>
		<g>
			<path style="fill:#F2AB88;" d="M333.904,258.009c-1.605-3.081-3.764-6.684-3.822-7.98c-0.054-1.227,0.172-3.132,0.413-4.736
				c-1.952,0.109-3.924,0.095-5.844,0.062c-0.968-0.017-2.091-0.069-3.098-0.353c-0.074,1.722-0.561,6.116-3.492,10.096
				c-0.78,1.059-1.742,2.692-2.939,4.028c-0.942,1.498-2.371,2.417-2.217,4.276c0.054,0.649,0.13,1.294,0.195,1.94
				c0.917-1.197,2.647-2.725,5.195-1.83c1.195,0.42,0.611,2.782-0.198,4.959c-0.076,0.204-1.004-0.186-1.755-0.473
				c-0.058,0.258-0.197,0.674-0.305,1.008c-0.063,0.193-0.115,0.384-0.16,0.582c-0.12,0.526-0.373,1.642-0.373,1.642
				s2.416,2.186,5.576,0.728c0.057-0.026,0.101-0.091,0.152-0.133c0.581,0.377,1.313,1.143,2.98,0.064
				c0.096-0.062,0.186-0.154,0.276-0.242c0.371,0.284,0.977,1.347,2.882,0.115c0.099-0.064,0.191-0.158,0.284-0.25
				c-0.019,0.034-0.039,0.068-0.039,0.068s0.264,1.008,2.165,0.521c1.183-0.303,2.981-4.056,3.632-6.581
				C333.9,263.633,334.659,259.458,333.904,258.009z"/>
			<path style="opacity:0.55;fill:#DCB890;" d="M323.667,252.967c3.687-0.085,6.659,1.156,9.218,3.181
				c-1.393-2.54-2.757-5.08-2.802-6.12c-0.054-1.227,0.172-3.132,0.413-4.736c-1.952,0.109-3.924,0.095-5.844,0.062
				c-0.968-0.017-2.091-0.069-3.098-0.353c-0.071,1.652-0.528,5.761-3.152,9.606C320.099,253.776,321.861,253.009,323.667,252.967z"
				/>
			<path style="opacity:0.65;fill:#D69C7C;" d="M321.874,272.152c-0.17-0.145-0.472-0.144-0.618-0.296
				c-0.052-0.647,1.271-5.286,1.538-6.891C323.013,265.13,322.388,270.041,321.874,272.152z"/>
			<path style="opacity:0.65;fill:#D69C7C;" d="M325.106,272.017c-0.17-0.145-0.437-0.225-0.583-0.378
				c-0.051-0.648,1.134-5,1.402-6.604C326.34,265.195,325.62,269.907,325.106,272.017z"/>
			<path style="opacity:0.65;fill:#D69C7C;" d="M328.197,272.125c-0.301-0.169-0.463-0.353-0.609-0.505
				c-0.052-0.648,1.642-4.992,1.909-6.597C329.715,265.188,329.158,269.571,328.197,272.125z"/>
		</g>
		<path style="fill:#E95E68;" d="M324.929,125.196c0.952,1.546,2.357,4.595,3.584,10.304c1.432,6.664,8.12,55.139,8.44,57.392
			c0.32,2.253-0.3,53.399-1.98,59.36c0,0-12.703-4.151-17.921-1.556c0,0,1.968-47.809,2.358-55.771
			c-0.091,1.856-1.557-10.952-5.249-26.908c-1.855-8.017-3.128-16.336-1.599-24.421
			C314.208,134.896,324.259,124.108,324.929,125.196z"/>
		<path style="fill:#E3B975;" d="M335.405,300.862c0.087,1.877-2.132,3.504-4.955,3.635c-2.824,0.13-5.183-1.286-5.269-3.163
			c-0.087-1.877,2.132-3.504,4.955-3.635C332.959,297.568,335.318,298.984,335.405,300.862z"/>
		<path style="fill:#CE9851;" d="M333.764,300.946c0.056,1.206-1.369,2.251-3.183,2.335c-1.814,0.084-3.329-0.826-3.385-2.032
			c-0.056-1.206,1.369-2.251,3.183-2.335C332.193,298.831,333.708,299.74,333.764,300.946z"/>
	</g>
	<g>
		<path style="fill:#E95E68;" d="M254.423,119.679c0,0-5.227,0.417-8.154,3.107c-1.231,1.132-1.703,3.598-2.573,6.039
			c-1.504,4.222-14.478,59.726-4.557,67.663c7.041,5.633,15.666-14.079,16.676-38.829
			C256.229,147.533,254.258,121.49,254.423,119.679z"/>
		<path style="opacity:0.65;fill:#CFB6B5;" d="M235.698,174.416c1.926-2.229,3.365-4.838,4.934-7.317
			c1.621-2.561,3.274-5.102,4.845-7.694c1.616-2.666,3.122-5.398,4.636-8.123c1.468-2.643,3.03-5.259,4.378-7.964
			c0.849,5.524,1.552,11.053,1.204,16.649c-0.371,5.947-1.152,11.873-2.511,17.678c-1.311,5.6-3.04,11.634-6.485,16.335
			c-1.419,1.936-3.745,4.268-6.372,3.215c-1.89-0.757-2.925-2.686-3.542-4.512C234.852,186.964,235.29,180.335,235.698,174.416
			C237.025,172.88,235.045,183.891,235.698,174.416z"/>
		<g>
			<path style="fill:#F2AB88;" d="M296.443,102.182c-0.096-0.565-0.995-2.157-2.262-1.347c-0.933,0.596-2.332,1.649-3.805,2.907
				c-2.949,2.519-7.014,4.605-8.032,5.141c-1.123,0.591-4.098,2.307-6.306,3.335c-0.383,0.017-0.727-0.228-0.888-0.816
				c-0.494-1.796,0.307-2.016,0.759-5.319c0.4-2.919-0.61-5.826-2.294-5.563c-2.763,0.433-1.665,4.846-1.998,6.438
				c-0.714,3.412-2.443,8.57-2.5,9.542c-0.048,0.826-0.044,2.945-0.182,4.761c-0.028,0.366-0.138,0.71-0.322,1.027
				c-2.241,3.853-5.997,9.662-9.724,16.681c0.75,0.842,1.501,1.708,2.293,2.592c2.013,2.245,4.05,4.464,6.006,6.753
				c3.601-10.855,6.729-18.784,7.852-19.907c0.564-0.564,2.697-1.127,5.196-1.71c0.654-0.048,1.419-0.208,2.496-0.572
				c3.642-0.833,6.558-2.411,7.376-3.031c0.505-0.383,0.784-1.235,0.702-1.61c-0.087-0.397-0.133-0.674-0.436-1.207
				c-0.234-0.411-0.525-0.777-0.861-0.965c0,0,2.938-2.25,2.165-3.024c-0.62-0.622-1.922-1.904-1.922-1.904s1.587-1.026,1.408-2.259
				c-0.114-0.786-1.481-1.299-2.665-1.686c-0.043,0.023-0.089,0.039-0.132,0.061c1.78-1.432,4.099-3.128,5.521-4.5
				C295.698,104.253,296.62,103.23,296.443,102.182z"/>
			<path style="opacity:0.35;fill:#DCAE90;" d="M271.942,132.574c-1.61-0.22-3.339-0.643-4.694-1.56
				c-0.944-0.639-1.857-1.307-2.555-2.191c-1.655,2.777-4.131,6.998-5.804,10.147c0.75,0.841,1.501,1.708,2.293,2.592
				c2.013,2.246,4.05,4.464,6.006,6.754c2.187-6.594,4.195-12.09,5.688-15.649C272.57,132.646,272.26,132.618,271.942,132.574z"/>
			<path style="fill:#FFD7C0;" d="M273.187,104.93c-1.665-0.294-1.018-3.339-0.914-3.431c0,0,1.18-0.787,2.379,0.605
				c0.173,0.778,0.03,1.251-0.12,1.738C274.263,104.711,273.67,105.015,273.187,104.93z"/>
			<path style="fill:#FFD7C0;" d="M293.074,104.086c-0.704-1.587,1.41-2.914,1.548-2.926c0,0,1.239-0.263,1.38,1.568
				c-0.322,0.729-0.824,1.118-1.234,1.421C294.037,104.69,293.273,104.535,293.074,104.086z"/>
			<path style="opacity:0.65;fill:#D69C7C;" d="M287.735,110.772c-1.345,0.91-4.16,3.033-5.177,3.781
				c0.237,0.116,4.849-2.617,6.434-3.973c-0.159-0.066-0.316-0.121-0.473-0.173C288.262,110.542,288.001,110.664,287.735,110.772z"
				/>
			<path style="opacity:0.65;fill:#D69C7C;" d="M290.245,114.795c-0.198-0.083-0.328-0.342-0.522-0.401
				c-0.577,0.237-4.654,3.449-5.912,4.374C284.047,118.884,288.66,116.151,290.245,114.795z"/>
			<path style="opacity:0.65;fill:#D69C7C;" d="M289.965,119.705c0,0-0.228-0.299-0.414-0.355c-0.551,0.226-3.217,2.47-4.419,3.354
				C285.358,122.814,288.452,120.999,289.965,119.705z"/>
		</g>
		<path style="fill:#E95E68;" d="M261.59,129.397c-11.174,20.351-28.395,58.703-23.801,65.504c3.862,5.717,9.56,2.717,14.768-4.513
			c3.745-5.2,21.784-45.775,24.216-52.272C274.833,136.65,262.633,130.108,261.59,129.397z"/>
	</g>
</g>
<g>
	<path style="fill:#995235;" d="M485.638,130.281c19.673-0.214,34.366-3.789,34.366-3.789s-2.533,0.422-5.066-42.662
		c-2.247-38.222-24.29-40.55-29.237-40.55c-0.653,0-1.305,0-1.958,0c-4.947,0-26.989,2.328-29.237,40.55
		c-2.533,43.084-5.066,42.662-5.066,42.662s14.693,3.575,34.366,3.789l0,0.01c0.307,0,0.61-0.004,0.915-0.005
		c0.305,0.002,0.608,0.005,0.915,0.005L485.638,130.281z"/>
	<path style="opacity:0.5;fill:#8A2F17;" d="M485.34,130.283c13.281-0.169,23.201-2.994,23.201-2.994s-1.71-2.335-3.42-36.378
		c-1.699-33.825-20.162-28.738-20.398-28.671c-0.237-0.067-18.699-5.154-20.398,28.671c-1.71,34.043-3.42,36.378-3.42,36.378
		s9.92,2.825,23.201,2.994l0,0.008c0.208,0,0.412-0.003,0.618-0.004c0.206,0.001,0.41,0.004,0.618,0.004L485.34,130.283z"/>
	<g>
		<path style="fill:#F2AB88;" d="M473.978,132.307c1.821,1.339,3.69,2.715,5.195,4.419c0.559,0.642,1.131,1.272,1.703,1.901
			c2.768-0.283,5.589-0.832,8.195-1.795c6.352-2.347,12.495-7.027,17.001-12.08c1.702-1.908,2.005-4.875,3.136-7.153
			c-3.736-1.021-6.624-1.58-9.431-2.724c-7.451-3.036-7.269-17.221-7.269-17.221h-16.06c0,0,0,14.627-7.451,17.663
			c-3.563,1.451-8.469,2.466-13.209,3.901C460.241,124.317,468.001,127.91,473.978,132.307z"/>
		<path style="opacity:0.55;fill:#DCB890;" d="M476.448,97.753c-0.001,0.116-0.006,0.338-0.018,0.654
			c-0.001,0.023-0.002,0.044-0.003,0.067c-0.013,0.32-0.035,0.722-0.07,1.193c-0.002,0.029-0.004,0.057-0.006,0.086
			c-0.037,0.483-0.088,1.031-0.157,1.629c-0.003,0.028-0.007,0.056-0.01,0.085c-0.072,0.605-0.163,1.256-0.28,1.938
			c-0.006,0.034-0.012,0.067-0.017,0.101c-0.118,0.685-0.262,1.396-0.436,2.118c-0.008,0.034-0.017,0.069-0.025,0.103
			c-0.176,0.722-0.383,1.452-0.626,2.174c-0.013,0.037-0.025,0.074-0.038,0.111c-0.245,0.717-0.526,1.422-0.847,2.099
			c-0.019,0.04-0.038,0.079-0.057,0.118c-0.162,0.334-0.331,0.662-0.513,0.979c0.508,0.213,6.064,2.428,10.656,2.428
			c6.705,0,10.103-1.959,11.427-2.775c-2.913-5.391-2.916-13.207-2.916-13.207h-8.03h-8.03c0,0,0,0.035-0.001,0.084
			C476.448,97.745,476.448,97.746,476.448,97.753z"/>
	</g>
	<path style="fill:#F2AB88;" d="M482.151,136.57c4.489,2.095,8.474-0.2,12.298-2.731c3.973-2.63,7.376-4.868,10.387-8.626
		c1.85-2.309,3.758-4.538,5.53-6.883c-3.807-1.043-7.529-1.928-10.387-3.092c-7.459-3.039-7.459-17.681-7.459-17.681h-16.077
		c0,0,0,14.642-7.459,17.681c-1.819,0.741-3.998,1.368-6.318,1.994C468.057,124.886,473.469,132.519,482.151,136.57z"/>
	<path style="opacity:0.55;fill:#DCB890;" d="M476.442,97.656c-0.001,0.116-0.006,0.339-0.019,0.654
		c-0.001,0.023-0.002,0.044-0.003,0.067c-0.013,0.32-0.035,0.723-0.07,1.194c-0.002,0.029-0.004,0.057-0.007,0.086
		c-0.037,0.483-0.088,1.032-0.158,1.63c-0.003,0.028-0.007,0.056-0.01,0.085c-0.072,0.606-0.164,1.257-0.28,1.94
		c-0.006,0.034-0.012,0.067-0.018,0.101c-0.119,0.685-0.262,1.397-0.436,2.12c-0.008,0.035-0.017,0.069-0.025,0.104
		c-0.177,0.723-0.384,1.454-0.627,2.176c-0.012,0.037-0.025,0.074-0.038,0.111c-0.245,0.717-0.526,1.423-0.848,2.101
		c-0.019,0.04-0.038,0.079-0.057,0.118c-0.162,0.334-0.331,0.663-0.514,0.98c0.509,0.213,6.07,2.431,10.667,2.431
		c6.713,0,10.113-1.961,11.439-2.778c-2.916-5.397-2.92-13.221-2.92-13.221h-8.038h-8.039c0,0,0,0.034-0.001,0.084
		C476.442,97.648,476.442,97.649,476.442,97.656z"/>
	<g>
		<path style="fill:#F2AB88;" d="M460.93,80.298c2.461-3.335,8.039,2.096,8.039,2.096s3.464,4.047-0.57,8.939
			c-2.017,2.446-4.346,0.597-5.904-2.311C460.937,86.115,459.176,82.676,460.93,80.298z"/>
		<path style="fill:#DB7A5B;" d="M464.47,89.358c0.541,0.549,1.232,0.993,2.05,0.844c0.344-0.062,0.663-0.571,0.569-0.863
			c-0.233-0.723-2.54-2.011-1.965-4.031c0.58-2.039-2.009-3.993-2.816-2.871C461.679,83.312,462.439,87.299,464.47,89.358z"/>
	</g>
	<g>
		<path style="fill:#F2AB88;" d="M508.507,80.298c-2.461-3.335-8.039,2.096-8.039,2.096s-3.464,4.047,0.57,8.939
			c2.017,2.446,4.346,0.597,5.904-2.311C508.501,86.115,510.261,82.676,508.507,80.298z"/>
		<path style="fill:#DB7A5B;" d="M504.967,89.358c-0.541,0.549-1.232,0.993-2.05,0.844c-0.344-0.062-0.663-0.571-0.569-0.863
			c0.233-0.723,2.54-2.011,1.965-4.031c-0.58-2.039,2.009-3.993,2.816-2.871C507.759,83.312,506.998,87.299,504.967,89.358z"/>
	</g>
	<path style="fill:#F2AB88;" d="M504.9,63.576c-0.54-3.022-2.606-5.576-5.222-7.666c-4.377-3.497-9.638-7.108-14.899-7.108
		c-5.261,0-10.522,3.611-14.899,7.108c-2.616,2.09-4.683,4.643-5.222,7.666c0,0-1.282,22.065,4.643,31.172
		c4.59,7.055,10.368,12.571,15.479,12.571s10.889-5.516,15.479-12.571C506.182,85.64,504.9,63.576,504.9,63.576z"/>
	
		<radialGradient id="SVGID_00000018946058027519790260000008086177472072506290_" cx="468.6833" cy="86.8169" r="3.8033" gradientTransform="matrix(1.1695 0 0 1 -52.3916 0)" gradientUnits="userSpaceOnUse">
		<stop  offset="0" style="stop-color:#F29788"/>
		<stop  offset="0.6119" style="stop-color:#F2A388"/>
		<stop  offset="0.9198" style="stop-color:#F2AB88"/>
	</radialGradient>
	<path style="fill:url(#SVGID_00000018946058027519790260000008086177472072506290_);" d="M500.499,86.817
		c0,1.939-2.134,3.511-4.766,3.511c-2.632,0-4.766-1.572-4.766-3.511c0-1.939,2.134-3.511,4.766-3.511
		C498.366,83.306,500.499,84.878,500.499,86.817z"/>
	
		<radialGradient id="SVGID_00000121261997221053629470000002703846045729676941_" cx="62.2997" cy="86.8169" r="3.8033" gradientTransform="matrix(-1.1695 0 0 1 546.5875 0)" gradientUnits="userSpaceOnUse">
		<stop  offset="0" style="stop-color:#F29788"/>
		<stop  offset="0.6119" style="stop-color:#F2A388"/>
		<stop  offset="0.9198" style="stop-color:#F2AB88"/>
	</radialGradient>
	<path style="fill:url(#SVGID_00000121261997221053629470000002703846045729676941_);" d="M468.962,86.817
		c0,1.939,2.134,3.511,4.766,3.511c2.632,0,4.766-1.572,4.766-3.511c0-1.939-2.134-3.511-4.766-3.511
		C471.096,83.306,468.962,84.878,468.962,86.817z"/>
	<g>
		<path style="fill:#CE7959;" d="M483.792,89.568c-0.124,0-0.24-0.006-0.345-0.019c-0.78-0.09-2.182-0.368-2.811-1.223
			c-0.286-0.389-0.383-0.841-0.287-1.344c0.085-0.446,0.521-1.037,1.073-1.786c0.57-0.773,1.217-1.649,1.495-2.407
			c0.794-2.16,0.912-4.775,0.914-4.801c0.01-0.232,0.222-0.421,0.44-0.404c0.233,0.01,0.414,0.207,0.404,0.439
			c-0.005,0.112-0.125,2.774-0.965,5.056c-0.32,0.871-1.004,1.799-1.608,2.617c-0.41,0.555-0.874,1.185-0.923,1.442
			c-0.051,0.271-0.007,0.489,0.138,0.686c0.316,0.43,1.149,0.76,2.228,0.885c0.602,0.07,1.411-0.127,1.632-0.397
			c0.042-0.051,0.048-0.083,0.028-0.144c-0.071-0.222,0.05-0.46,0.273-0.531c0.221-0.07,0.46,0.051,0.531,0.272
			c0.107,0.333,0.044,0.667-0.179,0.939C485.402,89.37,484.481,89.568,483.792,89.568z"/>
	</g>
	<path style="fill:#6B2F0C;" d="M478.567,69.923c0.736-0.141,1.393-0.399,1.595-1.121c0.18-0.644,0.385-1.646,0.164-1.868
		c-0.661-0.663-8.429,1.325-8.696,1.513s-3.484,3.449-3.24,3.952c0.244,0.503,4.047-1.898,4.471-1.937
		C473.182,70.434,476.606,70.3,478.567,69.923z"/>
	<path style="fill:#6B2F0C;" d="M490.716,69.983c-0.711-0.238-1.328-0.58-1.432-1.322c-0.093-0.662-0.164-1.683,0.085-1.873
		c0.743-0.569,8.179,2.429,8.419,2.651c0.24,0.222,2.997,3.88,2.688,4.346s-3.76-2.418-4.175-2.512
		C495.987,71.203,492.61,70.616,490.716,69.983z"/>
	<path style="fill:#FDFAEE;" d="M484.254,94.099c0,0-3.94-0.334-7.318-0.914c0,0,4.224,5.667,7.318,5.667
		c3.093,0,6.714-5.345,6.714-5.345C488.309,93.871,484.254,94.099,484.254,94.099z"/>
	<path style="fill:#E95E68;" d="M476.715,92.957c0,0,3.531,7.071,7.539,7.071c4.008,0,7.538-7.071,7.538-7.071
		c-1.436,0.443-6.201,4.74-7.538,4.74C482.82,97.697,478.151,93.399,476.715,92.957z"/>
	<path style="fill:#995235;" d="M484.87,48.657c0,0,0,0.011-0.001,0.025c0-0.014-0.001-0.025-0.001-0.025
		c-31.695,0-24.472,21.774-21.991,28.93c0.757,2.184,2.025,4.495,3.026,6.336c1.143,2.101,0.774-0.347,0.774-0.347
		c-1.548-11.826,1.759-20.304,1.759-20.304c3.381-8.549,16.434-9.71,16.434-9.71s8.151,7.599,16.434,9.71
		c0,0,3.307,8.478,1.759,20.304c0,0-0.368,2.448,0.774,0.347c1.001-1.841,2.269-4.152,3.026-6.336
		C509.342,70.431,516.565,48.657,484.87,48.657z"/>
	<path style="opacity:0.5;fill:#995235;" d="M508.596,60.168c-0.77-2.468-2.202-4.789-4.629-6.692
		C505.817,55.464,507.377,57.738,508.596,60.168z"/>
	<path style="fill:#995235;" d="M504.375,67.801c0,0-0.233-15.797-12.699-17.413c-1.921-0.249-12.005-0.051-14.058,0.149
		c-16.967,1.647-13.078,20.534-13.078,20.534c6.558-2.84,12.317-9.139,13.954-15.106C479.979,60.308,491.11,67.718,504.375,67.801z"
		/>
	<path style="opacity:0.5;fill:#995235;" d="M496.648,59.242c-1.51-0.923-2.904-2.011-4.146-3.252
		c1.689,2.533,2.533,5.91,5.91,6.755c-5.91,0-10.976-4.222-13.509-9.288c0,2.533,0.844,4.222,2.533,5.91
		c-3.41-1.364-6.268-3.834-9.021-6.512c-0.754,3.075-2.367,5.764-4.826,8.29c-1.021,1.049-2.091,1.971-3.218,2.765
		c-2.002,1.411-3.336,3.612-3.672,6.038c-0.002,0.015-0.004,0.03-0.006,0.044c5.633-3.167,10.346-8.725,11.8-14.028
		c1.406,4.11,11.449,10.962,23.765,11.757c-0.053-0.369-0.118-0.732-0.191-1.09C501.423,63.509,499.368,60.904,496.648,59.242z"/>
	<path style="opacity:0.55;fill:#D27961;" d="M475.39,77.196c-1.579,0.04-2.784,2.111-4.035,3.003
		c-0.77-0.223-1.684-0.01-1.579-0.983c0,0-1.076-0.127,0.218-0.74c0.787-0.373,2.498-4.074,5.355-4.059
		c3.21,0.017,4.322,3.917,4.54,5.963C479.484,80.009,477.102,77.153,475.39,77.196z"/>
	<path style="opacity:0.55;fill:#D27961;" d="M493.956,77.196c1.579,0.04,2.784,2.111,4.035,3.003
		c0.141,0.039,2.148,0.369,2.042-0.603c0,0,0.612-0.506-0.682-1.12c-0.787-0.373-2.498-4.074-5.355-4.059
		c-3.21,0.017-4.322,3.917-4.54,5.963C489.863,80.009,492.245,77.153,493.956,77.196z"/>
	<path style="fill:#321413;" d="M475.39,78.153c-1.236,0.031-2.242,1.041-3.221,1.907c-0.693,0.613-1.704,0.823-2.525,0.396
		c-0.792-0.413-1.16-1.184-1.093-1.809c0,0,0.993,0.38,2.287-0.234c0.787-0.373,1.654-2.956,4.51-2.942
		c3.21,0.017,4.322,2.979,4.54,5.024C479.484,80.124,477.102,78.11,475.39,78.153z"/>
	<path style="fill:#321413;" d="M493.956,78.153c1.236,0.031,2.242,1.041,3.221,1.907c0.693,0.613,1.704,0.823,2.525,0.396
		c0.792-0.413,1.16-1.184,1.093-1.809c0,0-0.993,0.38-2.287-0.234c-0.787-0.373-1.653-2.956-4.51-2.942
		c-3.21,0.017-4.322,2.979-4.54,5.024C489.863,80.124,492.245,78.11,493.956,78.153z"/>
	<path style="fill:#E95E68;" d="M488.367,93.164c-1.23-0.464-2.671-1.061-4.114,0.391c-1.46-1.465-2.884-0.855-4.114-0.391
		c-1.23,0.464-4.022-0.696-4.022-0.696c3.034,2.59,8.135,2.063,8.135,2.063s5.559,0.712,8.135-2.063
		C492.389,92.468,489.597,93.628,488.367,93.164z"/>
	<path style="fill:#E95E68;" d="M517.672,132.028c0.408-3.58,1.542-7.053,3.62-9.876c-5.272-3.124-12.266-4.393-17.394-6.083
		c-0.685,1.005-13.416,19.577-18.201,19.626c-0.094-0.001-0.494-0.001-0.588,0c-4.785-0.049-17.516-18.621-18.201-19.626
		c-6.544,2.156-14.137,2.805-20.365,6.717c0.923,1.848,0.491,5.104,1.17,7.154c2.457,7.414,5.668,14.442,7.376,22.12
		c2.727,12.256,5.176,33.514,5.838,45.965l0.243,0.091c7.622,2.848,15.94,4.103,24.233,3.869c8.292,0.234,16.611-1.02,24.233-3.869
		l0.243-0.091c0.661-12.451,3.11-33.709,5.838-45.965c0.048-0.216,0.109-0.427,0.159-0.642c-0.583-5.083-0.495-10.084,0.645-15.285
		C516.826,134.739,517.19,133.359,517.672,132.028z"/>
	<path style="opacity:0.65;fill:#CFB6B5;" d="M458.896,147.234c-1.548-5.366-3.852-9.914-8.258-13.536
		c-0.692-0.569-1.422-1.077-2.168-1.559c2.327,6.617,5.08,13.007,6.618,19.921c2.727,12.256,5.176,33.514,5.838,45.965l0.243,0.091
		c3.306,1.236,6.748,2.153,10.257,2.798C464.54,193.667,461.081,154.807,458.896,147.234z"/>
	<g>
		<g>
			<g>
				<path style="fill:#C1414D;" d="M479.188,147.821c0,0.901,0.73,1.632,1.632,1.632c0.901,0,1.632-0.73,1.632-1.632
					c0-0.901-0.73-1.632-1.632-1.632C479.918,146.189,479.188,146.92,479.188,147.821z"/>
			</g>
			<g>
				<path style="fill:#C1414D;" d="M479.188,158.605c0,0.901,0.73,1.632,1.632,1.632c0.901,0,1.632-0.73,1.632-1.632
					c0-0.901-0.73-1.632-1.632-1.632C479.918,156.974,479.188,157.704,479.188,158.605z"/>
			</g>
			<g>
				<path style="fill:#C1414D;" d="M479.188,169.39c0,0.901,0.73,1.632,1.632,1.632c0.901,0,1.632-0.73,1.632-1.632
					c0-0.901-0.73-1.632-1.632-1.632C479.918,167.758,479.188,168.489,479.188,169.39z"/>
			</g>
			<g>
				<path style="fill:#C1414D;" d="M479.188,180.174c0,0.901,0.73,1.632,1.632,1.632c0.901,0,1.632-0.73,1.632-1.632
					c0-0.901-0.73-1.632-1.632-1.632C479.918,178.543,479.188,179.273,479.188,180.174z"/>
			</g>
			<g>
				<path style="fill:#C1414D;" d="M479.188,190.693c0,0.901,0.73,1.632,1.632,1.632c0.901,0,1.632-0.73,1.632-1.632
					c0-0.901-0.73-1.632-1.632-1.632C479.918,189.061,479.188,189.792,479.188,190.693z"/>
			</g>
			<g>
				<path style="fill:#C1414D;" d="M479.188,180.174c0,0.901,0.73,1.632,1.632,1.632c0.901,0,1.632-0.73,1.632-1.632
					c0-0.901-0.73-1.632-1.632-1.632C479.918,178.543,479.188,179.273,479.188,180.174z"/>
			</g>
		</g>
	</g>
	<path style="fill:#CA3348;" d="M485.403,138.627c0,0-1.408,37.386,0.354,59.873C485.757,198.5,486.085,146.905,485.403,138.627z"/>
	<path style="opacity:0.65;fill:#CFB6B5;" d="M507.345,171.022c-2.053,17.634-5.101,26.414-7.472,29.793
		c3.337-0.639,6.612-1.521,9.762-2.699l0.243-0.091c0.661-12.451,3.11-33.709,5.838-45.965c0.492-2.21,1.112-9.057,1.799-11.185
		c-3.194,2.539-5.017,5.689-6.877,11.364C508.857,157.677,508.007,165.338,507.345,171.022z"/>
	<path style="fill:#F2AB88;" d="M455.236,302.167c0,0-0.857,6.202-3.25,11c-1.898,3.807-4.379,8.22-5.062,12.184
		c-1.545,8.96-0.927,50.052-1.854,53.142c-0.927,3.09-3.708,19.156-2.781,23.172c0.927,4.017,13.138,7.008,13.447,3.918
		c0.309-3.09-2.743-26.166-2.633-28.635c0.675-15.073,13.903-41.71,13.595-49.125c-0.309-7.415,9.578-23.227,9.578-23.227
		S462.651,297.786,455.236,302.167z"/>
	<path style="opacity:0.32;fill:#DAAB88;" d="M459.618,317.629c3.509,0.927,6.693,0.474,9.89-0.206
		c2.827-6.517,6.767-12.827,6.767-12.827s-13.624-6.809-21.039-2.429c0,0-0.857,6.202-3.25,11c-0.096,0.193-0.204,0.401-0.303,0.597
		C454.203,315.396,456.776,316.878,459.618,317.629z"/>
	<path style="fill:#F2AB88;" d="M491.74,304.596c0,0,4.017,14.267,3.399,17.048c-0.618,2.781-2.96,10.505,0.065,26.571
		c3.025,16.066,3.952,24.099,3.025,29.352c-0.927,5.252-3.708,28.895,2.472,30.668c4.161,1.194,6.719-0.755,6.827-10.109
		c0.046-3.968,0.251-9.845-1.081-16.402c-0.462-2.275-0.52-4.606-0.268-6.913c0.467-4.287,1.365-11.446,2.82-18.935
		c2.335-12.022,6.074-24.921,4.677-34.54c-2.781-19.156-2.472-22.245-2.472-22.245S501.924,294.252,491.74,304.596z"/>
	<path style="opacity:0.32;fill:#DAAB88;" d="M512.729,314.554c-1.755-13.128-1.524-15.465-1.524-15.465s-9.28-4.837-19.465,5.507
		c0,0,1.976,7.023,2.942,12.174C501.012,317.595,507.791,317.793,512.729,314.554z"/>
	<path style="fill:#333333;" d="M443.908,383.977c0,0,0.43,17.21,4.869,17.612c8.125,0.734,4.653-19.375,4.653-19.375
		s3.845,21.738,3.921,26.476c0.034,2.144-4.14,7.265-6.704,7.265s-7.341-4.866-8.544-9.037S442.747,389.46,443.908,383.977z"/>
	<path style="fill:#333333;" d="M506.802,383.977c0,0-0.413,17.508-4.869,17.612c-6.947,0.162-4.352-19.375-4.352-19.375
		s-4.129,21.738-4.222,26.476c-0.032,1.644,4.14,7.265,6.704,7.265c2.565,0,7.34-4.866,8.544-9.037S507.964,389.46,506.802,383.977z
		"/>
	<path style="fill:#333333;" d="M461.462,195.686c0,0-17.104,28.98-12.185,57.314c5.421,31.223-4.035,44.743-8.206,51.596
		c0,0,27.189,19.211,77.241,5.307c0,0-4.326-15.757-2.163-31.823c2.163-16.066,9.008-49.234-6.131-82.393
		C510.017,195.686,478.455,204.437,461.462,195.686z"/>
	<g>
		<path style="fill:#F2AB88;" d="M567.846,161.971c0,0,6.476-1.47,10.013-3.766c1.545-1.003,2.585-3.226,7.598-5.094
			c0.479-0.178,1.04-0.183,1.535-0.312c0.658-0.172,1.316-0.442,1.895-0.801c0.912-0.566,1.682-1.367,2.678-1.796
			c0.854-0.367,2.301-0.946,3.11-0.202c0.279,0.256,0.438,1.082,0.293,1.579c-0.537,1.849-1.64,2.446-4.683,3.659
			c-6.784,2.705-4.619,3.174-4.39,3.243c0.622,0.187,8.417-1.201,10.116-1.615c1.699-0.413,7.447-2.714,9.789-3.712
			c1.999-0.852,3.842,1.744-4.931,5.832c0,0,8.22-4.974,9.435-4.009c0.768,0.61,1.037,2.723-8.333,6.673c0,0,7.63-3.761,8.705-2.688
			c0.813,0.811-1.31,3.308-8.751,5.421c0,0,2.423-0.763,4.5-1.434c0.581-0.187,1.33-0.192,1.471,0.102
			c0.338,0.704,0.083,2.009-1.992,3.083c-1.308,0.677-4.336,1.872-6.072,2.154c-2.907,0.471-5.742,0.896-8.176,1.079
			c-2.434,0.184-6.339,0.551-8.222,0.643c-1.883,0.092-7.553-1.883-8.839-1.745c-1.286,0.138-4.088,1.745-4.088,1.745
			L567.846,161.971z"/>
		<path style="opacity:0.55;fill:#DCB890;" d="M581.477,166.686c-3.316-2.313-2.799-4.86-3.978-8.267
			c-3.596,2.171-9.653,3.552-9.653,3.552l2.664,8.038c0,0,2.802-1.608,4.088-1.745c1.286-0.138,6.964,1.837,8.847,1.745
			c1.253-0.061,3.396-0.244,5.41-0.414C587.315,168.972,582.855,167.648,581.477,166.686z"/>
		<path style="opacity:0.65;fill:#D69C7C;" d="M605.404,156.305c0,0-3.902,1.755-4.689,2.194c-0.503,0.281-3.956,1.732-3.956,1.732
			s3.569-0.813,4.322-1.128C602.405,158.549,605.404,156.305,605.404,156.305z"/>
		<path style="opacity:0.65;fill:#D69C7C;" d="M606.172,159.682c0,0-4.276,1.297-4.871,1.487c-0.596,0.191-3.436,1.068-3.436,1.068
			s2.86-0.119,3.67-0.405C602.346,161.546,606.172,159.682,606.172,159.682z"/>
		<path style="opacity:0.65;fill:#D69C7C;" d="M605.907,163.031c0,0-4.284,1.112-4.57,1.183c-0.286,0.072-3.303,0.75-3.303,0.75
			s2.281-0.089,3.146-0.179C601.794,164.723,605.907,163.031,605.907,163.031z"/>
		<path style="opacity:0.55;fill:#DCB890;" d="M586.381,163.379c1.414-0.122,2.838,0.204,4.141,0.768
			c2.078,0.899,2.32,1.508,3.277,2.003c-0.705-0.365-0.882-0.267-5.876-1.852c-2.067-0.656-4.918,0.726-6.472,3.005
			c0.04-0.094,0.07-0.145,0.07-0.145S582.23,163.738,586.381,163.379z"/>
	</g>
	<path style="fill:#E95E68;" d="M574.595,157.806c0,0-31.937,11.342-34.302,11.342c-1.924,0-10.357-30.909-15.327-42.418
		c-1.097-2.541-2.838-4.526-6.106-5.855c-2.327-0.947-5.599-2.318-7.929-2.735c0.569,1.809-1.399,20.967-0.566,26.011
		c1.118,6.771,15.057,47.348,24.803,46.26c5.672-0.633,44.381-18.85,44.381-18.85L574.595,157.806z"/>
	<g>
		<path style="fill:#DE8668;" d="M463.808,102.042c0,0,3.64-6.695,4.728-5.811c1.088,0.884-0.257,6.437-1.821,8.477
			C465.151,106.748,463.74,103.81,463.808,102.042z"/>
		<path style="fill:#E95E68;" d="M455.808,118.596c0,0-5.139-1.044-8.695,0.733c-1.496,0.748-2.631,2.987-4.141,5.093
			c-2.612,3.642-38.675,39.098-31.334,49.469c5.21,7.359,31.739-13.177,42.452-24.438
			C461.075,142.111,455.149,120.291,455.808,118.596z"/>
		<path style="opacity:0.65;fill:#CFB6B5;" d="M455.808,118.596c0,0-5.139-1.044-8.695,0.733c-1.496,0.748-2.631,2.987-4.141,5.093
			c-2.612,3.642-38.675,39.098-31.334,49.469c5.21,7.359,31.739-13.177,42.452-24.438
			C461.075,142.111,455.149,120.291,455.808,118.596z"/>
		<g>
			<path style="fill:#3B3534;" d="M464.308,88.328c-1.423-2.275-2.777-4.562-4.484-6.524c-0.223-0.257-0.609-0.303-0.893-0.115
				l-1.334,0.883c-0.298,0.197-0.392,0.593-0.215,0.903l9.474,16.571c0.204,0.356,0.675,0.452,1.001,0.202l2.198-1.679
				c0.28-0.214,0.35-0.606,0.161-0.903C468.239,94.559,466.261,91.451,464.308,88.328z"/>
			<path style="fill:#594B4A;" d="M462.484,79.334l-4.079,2.678c-0.32,0.21-0.422,0.633-0.232,0.965l9.367,16.433
				c0.216,0.379,0.716,0.483,1.066,0.221l3.191-2.397c0.281-0.211,0.37-0.594,0.211-0.908l-8.48-16.714
				C463.333,79.227,462.846,79.097,462.484,79.334z"/>
		</g>
		<path style="fill:#F2AB88;" d="M449.485,112.538c0,0,6.303-7.768,6.303-8.788s0.893-11.341,1.505-12.769
			c0.612-1.428,7.506-8.348,9.07-10.252c0.953-1.16,2.347,0.839,1.707,2.897c-0.41,1.319-4.106,4.644-4.77,4.989
			c0,0,1.972-1.36,3.74-0.952s5.848,3.74,6.256,4.624c0.408,0.884,1.7,5.508,1.224,5.78c-0.476,0.272-2.013,1.516-3.888-4.882
			c0,0,2.379,6.591,0.76,6.718c-2.089,0.163-2.516-2.176-4.692-5.984c0,0-3.06-0.68-3.264,1.564
			c-0.204,2.244-0.544,3.808,0.204,4.284c0.748,0.476,1.692,1.248,2.633,2.393c3.463,4.215-4.36,6.749-4.61,7.24l-4.37,7.646
			C457.293,117.046,452.408,116.72,449.485,112.538z"/>
		<path style="fill:#E95E68;" d="M450.09,105.656c-33.167,40.506-43.972,58.404-40.481,65.832
			c3.648,7.762,12.935,3.055,19.273-3.209c4.558-4.505,31.21-44.817,34.689-50.819C461.901,115.691,450.09,105.656,450.09,105.656z"
			/>
	</g>
</g>
</svg>
